<?xml version="1.0" encoding="UTF-8"?>
<svg version="1.1" xmlns="http://www.w3.org/2000/svg" width="500" height="500">
<path d="M0 0 C0.66 0 1.32 0 2 0 C2.44915771 0.78238037 2.89831543 1.56476074 3.36108398 2.37084961 C5.02404179 5.26578756 6.68841297 8.15990299 8.35375977 11.0534668 C9.07503439 12.30737 9.7957396 13.56160092 10.51586914 14.81616211 C11.549457 16.61658253 12.58506894 18.41582481 13.62109375 20.21484375 C14.2442749 21.29886475 14.86745605 22.38288574 15.50952148 23.49975586 C16.77765081 25.85941671 16.77765081 25.85941671 18 27 C20.42885341 27.36490069 20.42885341 27.36490069 23 27 C24.57104345 25.67535917 24.57104345 25.67535917 25.6875 23.625 C26.17863281 22.82449219 26.66976562 22.02398437 27.17578125 21.19921875 C31.18430006 14.16928961 35.12715099 7.10558618 39 0 C39.66 0 40.32 0 41 0 C41.2945105 1.0355603 41.2945105 1.0355603 41.5949707 2.09204102 C42.49606436 5.25023793 43.40421963 8.40636279 44.3125 11.5625 C44.62123047 12.64853516 44.92996094 13.73457031 45.24804688 14.85351562 C46.85549473 20.42036137 48.55008787 25.74588076 51 31 C53.28837501 31.38578376 53.28837501 31.38578376 56 31 C58.58745861 29.07039531 58.58745861 29.07039531 61.01171875 26.40625 C61.46601761 25.94013306 61.92031647 25.47401611 62.38838196 24.99377441 C63.83378808 23.50723625 65.26123857 22.00489698 66.6875 20.5 C68.58053707 18.52457462 70.48231618 16.55829159 72.38671875 14.59375 C73.22420654 13.71396484 74.06169434 12.83417969 74.92456055 11.92773438 C77 10 77 10 79 10 C79.33 21.22 79.66 32.44 80 44 C86.01459432 44 87.38881563 43.62050557 92.2734375 40.71875 C92.84204498 40.38580933 93.41065247 40.05286865 93.99649048 39.70983887 C95.79678213 38.65195565 97.58575376 37.57643751 99.375 36.5 C100.599555 35.77614905 101.82480938 35.05347987 103.05078125 34.33203125 C106.04206774 32.56828761 109.02347911 30.78857637 112 29 C113.22776183 32.6832855 112.61706219 34.08195925 111.53125 37.76953125 C111.04591797 39.47399414 111.04591797 39.47399414 110.55078125 41.21289062 C109.85341207 43.60183373 109.15291861 45.98986715 108.44921875 48.37695312 C107.96388672 50.0872168 107.96388672 50.0872168 107.46875 51.83203125 C107.16388672 52.87077393 106.85902344 53.9095166 106.54492188 54.97973633 C105.94722647 58.29250059 106.26128196 60.73641439 107 64 C114.2446029 63.40444992 120.93688447 61.85810171 127.9375 59.9375 C129.98772199 59.38204618 132.03847751 58.82855667 134.08984375 58.27734375 C135.43357056 57.90984009 135.43357056 57.90984009 136.80444336 57.53491211 C139 57 139 57 141 57 C139.62402388 60.68922941 137.94256424 63.96490952 135.92578125 67.34375 C135.34119141 68.34277344 134.75660156 69.34179688 134.15429688 70.37109375 C132.92340602 72.46217237 131.68375859 74.54812044 130.43554688 76.62890625 C129.85482422 77.62792969 129.27410156 78.62695312 128.67578125 79.65625 C128.13864502 80.56181641 127.60150879 81.46738281 127.0480957 82.40039062 C125.59060598 85.33010295 125.59060598 85.33010295 127 90 C143.83 90.495 143.83 90.495 161 91 C154.30503523 98.81079223 154.30503523 98.81079223 150.9140625 101.9375 C150.21152344 102.60523438 149.50898438 103.27296875 148.78515625 103.9609375 C147.33261091 105.33205625 145.86878926 106.691317 144.39453125 108.0390625 C140.58410662 111.50323565 140.58410662 111.50323565 138.52636719 116.05859375 C138.47190989 118.18670759 138.47190989 118.18670759 139 121 C141.66545164 121.6512183 144.33219056 122.29607161 147 122.9375 C147.74378906 123.11990234 148.48757813 123.30230469 149.25390625 123.49023438 C155.3654854 124.95169896 161.32016596 125.95379596 167.625 126.0625 C172.59282872 127.44245242 174.42692891 130.70623741 177 135 C177.68399584 136.32452705 178.35639648 137.65538231 179 139 C179.25523437 137.948125 179.25523437 137.948125 179.515625 136.875 C182.21586744 126.30383813 185.89811612 118.57578752 194 111 C194.66 111 195.32 111 196 111 C196.05406122 112.93719378 196.09282025 114.87481921 196.125 116.8125 C196.14820313 117.89144531 196.17140625 118.97039062 196.1953125 120.08203125 C196 123 196 123 194 126 C194.165 126.5775 194.33 127.155 194.5 127.75 C195.25265701 131.13695655 194.05755949 133.76511215 193 137 C193.60585938 136.65066406 194.21171875 136.30132812 194.8359375 135.94140625 C205.26094862 130.27982329 214.49905418 130.14148004 226 133 C226.66 133.66 227.32 134.32 228 135 C222.13210971 139.89271082 216.03990711 143.07533271 209 146 C209.60328125 146.36351562 210.2065625 146.72703125 210.828125 147.1015625 C215.76111784 150.20457413 219.45330373 152.67508962 222 158 C222.125 160.25 222.125 160.25 221 162 C216.27984493 164.47808141 211.06789338 164.51023223 206 163 C205.34 162.01 204.68 161.02 204 160 C204 160.99 204 161.98 204 163 C200.7 162.67 197.4 162.34 194 162 C194.58007812 162.95777344 195.16015625 163.91554688 195.7578125 164.90234375 C203.27416702 177.6005008 208.22682807 190.4663361 211.45703125 204.875 C211.79987118 206.96988586 211.79987118 206.96988586 213 208 C213.20753906 207.48953125 213.41507812 206.9790625 213.62890625 206.453125 C216.52163559 199.6267679 220.17853912 193.34405444 224 187 C222.02 186.34 220.04 185.68 218 185 C217.67 185.33 217.34 185.66 217 186 C209.47761194 186.23880597 209.47761194 186.23880597 207 185 C207.29459009 181.46491897 207.74881413 180.23796556 210.375 177.75 C213 176 213 176 216 175 C215.46890625 174.76925781 214.9378125 174.53851563 214.390625 174.30078125 C209.79832691 172.18061443 206.88155149 170.32232724 204 166 C211.63638979 163.86731456 217.82436328 164.86881307 225 168 C226.03590199 162.94997778 226.10251672 158.12583611 226 153 C230.19550588 154.39850196 230.84954391 156.72248614 232.859375 160.5 C234.43712595 163.95808428 235.25557537 167.27787685 236 171 C236.515625 170.030625 237.03125 169.06125 237.5625 168.0625 C240 165 240 165 243.5 163.8125 C247 164 247 164 249.3125 166.0625 C251.00017751 169.00030901 252.09089266 171.74236536 253 175 C250.69 175.33 248.38 175.66 246 176 C246.58007812 176.20753906 247.16015625 176.41507813 247.7578125 176.62890625 C254.83688314 179.42081695 259.12595949 182.996368 262.375 189.9375 C262.58125 190.618125 262.7875 191.29875 263 192 C259.66666667 192 256.33333333 192 253 192 C253.16371094 192.55171875 253.32742188 193.1034375 253.49609375 193.671875 C254.05760414 196.26614007 254.09739008 198.59835411 254.0625 201.25 C254.05347656 202.14203125 254.04445313 203.0340625 254.03515625 203.953125 C254.01775391 204.96632813 254.01775391 204.96632813 254 206 C253.01 206.33 252.02 206.66 251 207 C250.01287122 205.75627811 249.03560095 204.50472782 248.0625 203.25 C247.24458984 202.20585937 247.24458984 202.20585937 246.41015625 201.140625 C245 199 245 199 244.49609375 196.796875 C244.25052734 195.90742188 244.25052734 195.90742188 244 195 C243.01 194.67 242.02 194.34 241 194 C240.67 193.34 240.34 192.68 240 192 C239.85304688 192.87011719 239.85304688 192.87011719 239.703125 193.7578125 C238.20257317 201.59690221 235.0003821 206.63123707 229 212 C228.34 212 227.68 212 227 212 C227.11398665 210.37419034 227.24155659 208.74932843 227.375 207.125 C227.44460938 206.22007812 227.51421875 205.31515625 227.5859375 204.3828125 C228 202 228 202 230 200 C229.34 199.67 228.68 199.34 228 199 C228 196.36 228 193.72 228 191 C220.14718215 202.52175734 217.60449512 214.50649871 215 228 C216.16144531 228.12632812 217.32289063 228.25265625 218.51953125 228.3828125 C222.67125907 228.90394988 226.63949484 229.80163378 230.6875 230.875 C231.94949219 231.20242188 233.21148437 231.52984375 234.51171875 231.8671875 C237.72490054 232.91066199 240.2051762 234.12965903 243 236 C243.33 235.34 243.66 234.68 244 234 C248.20172849 236.52103709 250.88106444 238.52669159 253 243 C253 243.66 253 244.32 253 245 C252.34 245 251.68 245 251 245 C251 246.32 251 247.64 251 249 C238.59932348 252.93894922 223.11778137 247.07264263 211.125 243.875 C208.38409344 243.15335454 205.64228254 242.43561256 202.89865112 241.72439575 C201.20641154 241.2848465 199.51583724 240.83882481 197.82717896 240.38571167 C195.89577265 239.87983084 193.94898297 239.43325637 192 239 C191.67 239.33 191.34 239.66 191 240 C206.28881452 252.98396811 228.60209136 256.13322134 248 257 C247.67 257.99 247.34 258.98 247 260 C238.75 260 230.5 260 222 260 C230.59827552 263.49600213 238.90236362 266.16856092 248 268 C247.67 269.98 247.34 271.96 247 274 C224.95225407 280.52810354 205.83043091 278.29424029 185.44384766 268.51074219 C171.44850613 261.86214107 156.23060074 259.75718369 141.12890625 263.859375 C136.16484872 265.66899397 131.62707738 268.17661513 127.03125 270.76953125 C124 272 124 272 121.96484375 271.4765625 C121.31644531 270.98929687 120.66804688 270.50203125 120 270 C119.08347656 269.34128906 118.16695313 268.68257813 117.22265625 268.00390625 C111.33482834 263.45521349 105.51396761 258.84362347 99.8125 254.0625 C99.26021729 253.60238525 98.70793457 253.14227051 98.13891602 252.66821289 C95.65097244 250.55792799 93.82463145 248.73694717 92 246 C92.45890625 245.52691406 92.9178125 245.05382812 93.390625 244.56640625 C99.08895359 238.42514035 103.08880448 232.56878406 103.5 224 C103.16650842 217.47164976 101.35427206 212.39074099 96.73046875 207.6953125 C95.1249237 206.27434192 93.49182058 204.8836735 91.828125 203.53125 C91.22484375 203.0259375 90.6215625 202.520625 90 202 C90 201.67 90 201.34 90 201 C113.5356925 195.68643341 137.5616588 202.00466085 157.8515625 213.99609375 C160.51410908 215.69074188 162.80719695 217.44516696 165.1875 219.5 C168.2379106 221.8975568 170.09656013 222.25238425 173.9453125 222.0625 C180.30130902 221.91477202 186.39798557 222.64496497 192.6875 223.5 C193.78255859 223.64308594 194.87761719 223.78617188 196.00585938 223.93359375 C198.67146741 224.28280004 201.33605646 224.63835259 204 225 C204.131568 218.71722209 203.93170869 212.69779844 202.875 206.5 C202.74520752 205.7380835 202.61541504 204.97616699 202.48168945 204.19116211 C200.32508304 192.47924116 196.68786508 175.68786508 188 167 C187.67 171.95 187.34 176.9 187 182 C186.01 182 185.02 182 184 182 C184.65484375 182.66386719 185.3096875 183.32773437 185.984375 184.01171875 C188.47243529 187.70041279 188.46285166 190.53500029 188.25 194.8125 C188.23195313 195.50537109 188.21390625 196.19824219 188.1953125 196.91210938 C188.14851064 198.60867664 188.07677624 200.30452476 188 202 C181.25111704 199.24320183 176.69109923 191.91137903 173.5625 185.5625 C171.51821219 180.53733438 171.20100291 175.37682778 171 170 C169.02 171.32 167.04 172.64 165 174 C164.67 173.67 164.34 173.34 164 173 C163.855625 173.94875 163.71125 174.8975 163.5625 175.875 C162.18532263 180.8736438 158.5966625 184.1034892 155.09375 187.765625 C152.87219223 190.01386138 152.87219223 190.01386138 151 193 C150.34 193 149.68 193 149 193 C147.93276039 189.53777385 147.89826514 186.35960734 147.9375 182.75 C147.94652344 181.67234375 147.95554687 180.5946875 147.96484375 179.484375 C147.98224609 178.25460937 147.98224609 178.25460937 148 177 C146.68647977 177.30818356 145.37420428 177.62167665 144.0625 177.9375 C143.33160156 178.11152344 142.60070312 178.28554688 141.84765625 178.46484375 C140.00030102 178.83887569 140.00030102 178.83887569 139 180 C138.53157768 182.32957588 138.53157768 182.32957588 139 185 C140.92960469 187.58745861 140.92960469 187.58745861 143.59375 190.01171875 C144.05986694 190.46601761 144.52598389 190.92031647 145.00622559 191.38838196 C146.49276375 192.83378808 147.99510302 194.26123857 149.5 195.6875 C151.47542538 197.58053707 153.44170841 199.48231618 155.40625 201.38671875 C156.28603516 202.22420654 157.16582031 203.06169434 158.07226562 203.92456055 C160 206 160 206 160 208 C156.01316097 207.40161367 153.08642748 206.11808441 149.5625 204.1875 C139.62707466 199.09773051 128.97646751 196.70247251 118 195 C118.86250749 189.98001259 120.48227835 185.22649252 122.09570312 180.41015625 C130.74807996 153.64754924 126.47795489 125.00662393 114.59765625 100.0546875 C102.01813218 75.5925659 80.24011546 57.55548118 54.33203125 48.75390625 C24.8982674 39.99118266 -4.45602152 42.80884796 -31.6875 56.8125 C-37.86858076 60.32217477 -43.43005309 64.60351954 -49 69 C-49.63550781 69.46792969 -50.27101562 69.93585938 -50.92578125 70.41796875 C-60.14819415 77.57139164 -67.62148321 88.78533786 -73 99 C-73.86044922 100.58941406 -73.86044922 100.58941406 -74.73828125 102.2109375 C-86.40574936 124.71717389 -89.50453651 153.64120593 -82 178 C-80.08225259 183.75439404 -77.95838182 189.42353552 -75.70849609 195.05566406 C-74.9936784 197.01734845 -74.46996538 198.96707378 -74 201 C-75.01578125 200.52949219 -76.0315625 200.05898438 -77.078125 199.57421875 C-85.25992218 195.85114218 -93.133615 192.76320156 -102 191 C-101.34 190.113125 -100.68 189.22625 -100 188.3125 C-98.01139933 185.01888014 -97.56264926 183.71748127 -98 180 C-102.28853694 178.11304374 -106.52761347 176.41807378 -111 175 C-110.98839844 175.74765625 -110.97679688 176.4953125 -110.96484375 177.265625 C-110.95582031 178.25046875 -110.94679688 179.2353125 -110.9375 180.25 C-110.92589844 181.22453125 -110.91429688 182.1990625 -110.90234375 183.203125 C-110.98804423 185.65758678 -111.29293934 187.66168914 -112 190 C-115.1612992 188.9462336 -115.68248412 188.48249339 -117.62890625 185.98046875 C-118.10650391 185.37009766 -118.58410156 184.75972656 -119.07617188 184.13085938 C-119.56666016 183.48955078 -120.05714844 182.84824219 -120.5625 182.1875 C-121.3040332 181.24293945 -121.3040332 181.24293945 -122.06054688 180.27929688 C-125.73966121 175.53478271 -125.73966121 175.53478271 -126.99584961 172.9543457 C-128.46390643 170.0971138 -130.68671799 168.19465216 -133 166 C-133.33 165.67 -133.66 165.34 -134 165 C-134.00257813 165.79921875 -134.00515625 166.5984375 -134.0078125 167.421875 C-134.44514387 179.84208596 -138.9603483 188.37526442 -147.265625 197.453125 C-149 199 -149 199 -151 199 C-151.738041 184.21867882 -151.738041 184.21867882 -147 178 C-147.99 178.33 -148.98 178.66 -150 179 C-150.33 173.72 -150.66 168.44 -151 163 C-161.64776937 181.94942006 -166.67305044 200.32415023 -168 222 C-167.10244995 221.86368164 -167.10244995 221.86368164 -166.18676758 221.72460938 C-136.74809886 217.31432193 -136.74809886 217.31432193 -125 221 C-125.24675324 213.35064965 -127.22724923 208.03985274 -132 202 C-134.23860299 200.08375584 -136.50932892 198.59402949 -139 197 C-139 196.34 -139 195.68 -139 195 C-110.32307082 190.54066891 -85.20222159 198.35152086 -62.07421875 214.9453125 C-56.2443756 219.24751952 -50.69361247 223.88735639 -45.1484375 228.546875 C-40.5963147 232.36561212 -35.92135764 236.01755953 -31.20068359 239.625 C-27.10562242 242.78875516 -27.10562242 242.78875516 -26 245 C-28.61323309 252.20000158 -33.12654896 258.18556562 -38 264 C-43.46027776 263.08995371 -48.45262477 261.07359599 -53.625 259.15625 C-64.99081685 255.26240534 -80.99621931 254.86007612 -92 260 C-94.12845795 261.09748613 -96.25308181 262.20242243 -98.375 263.3125 C-104.05649629 266.28336176 -109.8063633 268.44362264 -115.9375 270.3125 C-116.71077637 270.55460205 -117.48405273 270.7967041 -118.28076172 271.04614258 C-132.08452688 275.07472753 -146.12128912 275.3681442 -160.375 275.3125 C-161.6809613 275.3117598 -161.6809613 275.3117598 -163.01330566 275.31100464 C-178.67049176 275.28391546 -194.76718539 275.00693011 -210 271 C-209.67 270.01 -209.34 269.02 -209 268 C-206.16219723 267.05406574 -203.61953318 266.72968281 -200.65722656 266.45581055 C-182.64890228 264.73772347 -158.24990823 260.24990823 -145 247 C-152.96420969 247.6526369 -160.51318792 249.88889872 -168.1875 252 C-170.22176651 252.55521692 -172.25644362 253.10886959 -174.2915802 253.66088867 C-176.13032971 254.16030176 -177.9679105 254.66401206 -179.80541992 255.16796875 C-184.16589076 256.3036573 -188.1318263 257.12835492 -192.64453125 257.09765625 C-193.48564453 257.09443359 -194.32675781 257.09121094 -195.19335938 257.08789062 C-196.05767578 257.07951172 -196.92199219 257.07113281 -197.8125 257.0625 C-198.69615234 257.05798828 -199.57980469 257.05347656 -200.49023438 257.04882812 C-202.66018559 257.03709866 -204.83010172 257.01916495 -207 257 C-207 256.01 -207 255.02 -207 254 C-205.86046875 253.85304688 -204.7209375 253.70609375 -203.546875 253.5546875 C-192.11046279 251.97379685 -181.42960541 249.25386714 -170.43896484 245.76855469 C-166.55686491 244.54524632 -162.66218078 243.37332877 -158.75 242.25 C-157.65522339 241.93506592 -157.65522339 241.93506592 -156.53833008 241.61376953 C-150.15668048 239.86820277 -143.8494016 239.17612293 -137.2578125 238.75 C-133.24447911 237.82606713 -132.17301174 236.40693297 -130 233 C-135.72713803 232.68761065 -141.07841848 233.21986233 -146.71484375 234.2265625 C-147.82428848 234.42384193 -147.82428848 234.42384193 -148.95614624 234.62510681 C-158.22646449 236.33446537 -167.31212594 238.76403452 -176.42138672 241.16870117 C-186.59112204 243.84158562 -196.5320142 245.88923361 -207 247 C-207.12119429 241.41840895 -206.38730437 239.21947136 -202.8828125 234.95703125 C-196.03764024 227.84202855 -188.56183425 225.6847745 -179 224 C-179.34059636 211.11926489 -183.63995155 198.52158129 -191 188 C-191 190.64 -191 193.28 -191 196 C-191.66 196.33 -192.32 196.66 -193 197 C-192.01 197.99 -192.01 197.99 -191 199 C-190.5859375 201.3828125 -190.5859375 201.3828125 -190.375 204.125 C-190.30023438 205.03507813 -190.22546875 205.94515625 -190.1484375 206.8828125 C-190.09945312 207.58148438 -190.05046875 208.28015625 -190 209 C-195.29345324 206.67408873 -198.70217394 202.53385088 -201.3125 197.4375 C-202.10058883 194.64336689 -202.59898843 191.87391622 -203 189 C-203.66 189.99 -204.32 190.98 -205 192 C-205.66 192 -206.32 192 -207 192 C-207.4125 193.03125 -207.825 194.0625 -208.25 195.125 C-209.81096297 198.75738302 -211.61347818 201.84363244 -214 205 C-214.66 205 -215.32 205 -216 205 C-217.30148702 202.39702597 -217.09720133 200.46584502 -217.0625 197.5625 C-217.05347656 196.59441406 -217.04445312 195.62632812 -217.03515625 194.62890625 C-217.02355469 193.76136719 -217.01195312 192.89382813 -217 192 C-217 191.01 -217 190.02 -217 189 C-219.97 189 -222.94 189 -226 189 C-224.50059358 183.66877718 -221.066196 179.63362195 -217 176 C-214.32429278 174.58976688 -211.93513166 173.82389661 -209 173 C-211.31 172.67 -213.62 172.34 -216 172 C-214.74568359 167.5053662 -213.21374355 164.40851589 -210 161 C-207 160 -207 160 -204.5 161.125 C-201.78491695 163.16131229 -200.53807831 165.00479488 -199 168 C-198.84144531 167.28714844 -198.68289062 166.57429687 -198.51953125 165.83984375 C-196.97651769 159.50581571 -195.29064017 154.95073866 -191 150 C-190.34 150 -189.68 150 -189 150 C-189.01160156 150.66386719 -189.02320313 151.32773438 -189.03515625 152.01171875 C-189.11893409 158.56306787 -189.11893409 158.56306787 -188 165 C-187.071875 164.505 -186.14375 164.01 -185.1875 163.5 C-180.32318559 161.40108315 -175.21074763 161.3611026 -170 162 C-169.01 162.66 -168.02 163.32 -167 164 C-170.53637896 167.04293074 -173.91036181 169.71461395 -178 172 C-177.05125 172.598125 -176.1025 173.19625 -175.125 173.8125 C-172 176 -172 176 -170 179 C-170 179.99 -170 180.98 -170 182 C-172.26154894 183.13077447 -173.49882829 183.10387968 -176 183.0625 C-176.70125 183.05347656 -177.4025 183.04445313 -178.125 183.03515625 C-179.053125 183.01775391 -179.053125 183.01775391 -180 183 C-182.42797311 183 -184.62907005 183.50085685 -187 184 C-186.31164062 185.01707031 -186.31164062 185.01707031 -185.609375 186.0546875 C-184.99578125 186.98539063 -184.3821875 187.91609375 -183.75 188.875 C-183.14671875 189.77992188 -182.5434375 190.68484375 -181.921875 191.6171875 C-179.4796911 195.91582827 -177.74049066 200.38118149 -176 205 C-175.82984375 204.3922876 -175.6596875 203.7845752 -175.484375 203.15844727 C-171.06747839 187.56862303 -166.32872051 172.42425634 -157 159 C-159.97 159.33 -162.94 159.66 -166 160 C-166.33 159.01 -166.66 158.02 -167 157 C-167.59167969 157.71542969 -167.59167969 157.71542969 -168.1953125 158.4453125 C-171.49417639 161.28719092 -175.7875641 161.14086171 -180 161 C-183.125 159.5625 -183.125 159.5625 -185 158 C-184.58020131 153.24228152 -182.43142078 150.17080654 -179 147 C-176.72346832 145.46817227 -174.45294601 144.25052149 -172 143 C-174.12012304 141.92769759 -176.24649325 140.88577142 -178.40234375 139.88671875 C-183.48956095 137.48028473 -187.32667308 135.28554807 -191 131 C-182.06753467 126.93978849 -172.13933779 126.77876806 -163.01953125 130.1328125 C-160.52418106 131.20431684 -158.24755462 132.477463 -156 134 C-156.2165625 132.95199219 -156.2165625 132.95199219 -156.4375 131.8828125 C-156.623125 130.97273437 -156.80875 130.06265625 -157 129.125 C-157.185625 128.22007812 -157.37125 127.31515625 -157.5625 126.3828125 C-158 124 -158 124 -158 122 C-158.33 121.34 -158.66 120.68 -159 120 C-159.07065617 117.95944995 -159.08421976 115.91665743 -159.0625 113.875 C-159.05347656 112.77929688 -159.04445313 111.68359375 -159.03515625 110.5546875 C-159.02355469 109.71164063 -159.01195312 108.86859375 -159 108 C-156 108 -156 108 -154.09765625 109.87109375 C-147.52574225 118.15851697 -143.86854115 125.60009334 -142 136 C-141.69707031 135.39671875 -141.39414063 134.7934375 -141.08203125 134.171875 C-136.56951797 125.56338813 -136.56951797 125.56338813 -132 123 C-128.875 122.5625 -128.875 122.5625 -126 123 C-125.52175781 123.50402344 -125.04351562 124.00804687 -124.55078125 124.52734375 C-122.91077782 126.42320543 -122.91077782 126.42320543 -119.3125 126 C-112.0127831 124.94505752 -104.97595285 122.31961131 -98 120 C-97.59396388 116.2089485 -97.60414525 114.52921008 -99.92773438 111.42285156 C-100.80751953 110.5872168 -101.68730469 109.75158203 -102.59375 108.890625 C-103.05986694 108.43774109 -103.52598389 107.98485718 -104.00622559 107.51824951 C-105.4905814 106.08053991 -106.9937812 104.66475777 -108.5 103.25 C-110.47574089 101.36644773 -112.44158251 99.47329405 -114.40625 97.578125 C-115.28603516 96.74700195 -116.16582031 95.91587891 -117.07226562 95.05957031 C-119 93 -119 93 -119 91 C-117.50835327 90.96241577 -117.50835327 90.96241577 -115.98657227 90.92407227 C-112.30951253 90.83015118 -108.6326485 90.72989381 -104.95581055 90.62768555 C-103.362107 90.58427854 -101.7683552 90.54260781 -100.17456055 90.50268555 C-97.88836092 90.44512193 -95.60240551 90.38138851 -93.31640625 90.31640625 C-92.59973282 90.29969376 -91.88305939 90.28298126 -91.14466858 90.26576233 C-87.78472618 90.44981346 -87.78472618 90.44981346 -85 89 C-85.05902522 81.79892284 -88.88157116 76.68623235 -92.625 70.75 C-93.85559442 68.79223616 -95.07743651 66.82893443 -96.2890625 64.859375 C-96.83256348 63.99795898 -97.37606445 63.13654297 -97.93603516 62.24902344 C-99 60 -99 60 -98 57 C-97.20827393 57.21205078 -96.41654785 57.42410156 -95.60083008 57.64257812 C-92.0063906 58.60144655 -88.40950812 59.55081497 -84.8125 60.5 C-83.56662109 60.83386719 -82.32074219 61.16773438 -81.03710938 61.51171875 C-79.2340332 61.98544922 -79.2340332 61.98544922 -77.39453125 62.46875 C-76.28956299 62.76201172 -75.18459473 63.05527344 -74.04614258 63.35742188 C-71.23630419 63.95015207 -68.85748686 64.2090136 -66 64 C-65.67 63.67 -65.34 63.34 -65 63 C-65.0548348 55.40886991 -67.07015302 48.14175046 -69.0625 40.875 C-69.34416016 39.823125 -69.62582031 38.77125 -69.91601562 37.6875 C-70.6037559 35.12304475 -71.29850725 32.56072069 -72 30 C-68.00910099 30.57887704 -65.28439866 31.81212229 -61.875 33.94140625 C-60.92109375 34.52470703 -59.9671875 35.10800781 -58.984375 35.70898438 C-56.99303892 36.94575004 -55.0034547 38.18534081 -53.015625 39.42773438 C-52.06171875 40.00974609 -51.1078125 40.59175781 -50.125 41.19140625 C-49.26132813 41.72967041 -48.39765625 42.26793457 -47.5078125 42.82250977 C-44.75275265 44.11608976 -43.00641915 44.31917015 -40 44 C-38.04901915 42.04901915 -38.74584892 38.35325071 -38.68359375 35.68359375 C-38.6524221 34.58701195 -38.6524221 34.58701195 -38.62062073 33.46827698 C-38.55504976 31.12478344 -38.49620568 28.78117461 -38.4375 26.4375 C-38.39432192 24.85220145 -38.35070787 23.26691471 -38.30664062 21.68164062 C-38.1993608 17.78787963 -38.0981151 13.89400228 -38 10 C-34.43838208 11.49968154 -32.29463255 13.54727014 -29.6640625 16.3515625 C-28.84679687 17.20234375 -28.02953125 18.053125 -27.1875 18.9296875 C-25.47895748 20.72678253 -23.77840504 22.53150783 -22.0859375 24.34375 C-21.26609375 25.19195312 -20.44625 26.04015625 -19.6015625 26.9140625 C-18.86244629 27.6973291 -18.12333008 28.4805957 -17.36181641 29.28759766 C-14.39770282 31.43668725 -12.58041266 31.33709376 -9 31 C-6.66139081 24.20890363 -4.67169741 17.37391306 -2.8125 10.4375 C-2.53986328 9.42880859 -2.26722656 8.42011719 -1.98632812 7.38085938 C-1.32186925 4.92119581 -0.65980807 2.46091442 0 0 Z M-132 142 C-132 142.33 -132 142.66 -132 143 C-131.17757812 143.00257813 -130.35515625 143.00515625 -129.5078125 143.0078125 C-118.97769134 143.3725973 -112.26871305 146.4016401 -105 154 C-103.68 153.34 -102.36 152.68 -101 152 C-101.22332501 148.15445233 -101.4415892 146.49861392 -104.37109375 143.8828125 C-114.54151682 138.05263367 -121.30510427 137.24671301 -132 142 Z M143 146 C141.61105086 148.50807389 141.61105086 148.50807389 142 151 C143.46222115 152.64477224 143.46222115 152.64477224 145 154 C146.051875 153.21625 147.10375 152.4325 148.1875 151.625 C153.01901085 148.02505074 157.31370645 146.77052485 163.3125 146.375 C164.38113281 146.30023438 165.44976562 146.22546875 166.55078125 146.1484375 C167.76314453 146.07496094 167.76314453 146.07496094 169 146 C166.33881921 143.33881921 163.56409691 142.79955026 160 142 C159.28070313 141.82726562 158.56140625 141.65453125 157.8203125 141.4765625 C151.66555425 140.34783521 147.56790685 141.65181525 143 146 Z M245 238 C245.33 238.66 245.66 239.32 246 240 C246.66 239.67 247.32 239.34 248 239 C247.01 238.67 246.02 238.34 245 238 Z M248 241 C249 243 249 243 249 243 Z " fill="#F59627" transform="translate(230,100)"/>
<path d="M0 0 C2.72634195 1.86050934 5.20868036 2.24104918 8.44140625 2.84765625 C16.15038554 4.51189898 20.79512293 7.51872195 26.06640625 13.41015625 C26.06640625 14.07015625 26.06640625 14.73015625 26.06640625 15.41015625 C27.20078125 15.55453125 28.33515625 15.69890625 29.50390625 15.84765625 C33.06640625 16.41015625 33.06640625 16.41015625 34.06640625 17.41015625 C34.31640625 20.78515625 34.31640625 20.78515625 34.06640625 24.41015625 C33.32390625 25.12171875 33.32390625 25.12171875 32.56640625 25.84765625 C30.73361932 27.45598287 30.73361932 27.45598287 30.56640625 30.72265625 C30.70609964 34.76641217 31.94667943 38.08319301 33.37890625 41.84765625 C41.51334237 63.50097057 40.90474477 85.72546598 32.54296875 107.3125 C32.05570313 108.33472656 31.5684375 109.35695313 31.06640625 110.41015625 C30.781604 111.09867676 30.49680176 111.78719727 30.20336914 112.49658203 C28.49353759 115.98380568 27.25322563 117.98446407 23.5078125 119.32788086 C20.4159994 119.8706307 17.38457551 120.18448797 14.25390625 120.41015625 C12.64225586 120.57064453 12.64225586 120.57064453 10.99804688 120.734375 C8.35541257 120.99276591 5.71445462 121.21671477 3.06640625 121.41015625 C4.00484375 121.95285156 4.94328125 122.49554688 5.91015625 123.0546875 C7.12924895 123.77676548 8.3479805 124.49945344 9.56640625 125.22265625 C10.18644531 125.57908203 10.80648437 125.93550781 11.4453125 126.30273438 C13.03779505 127.25647392 14.55886709 128.32713018 16.06640625 129.41015625 C16.06640625 132.41015625 16.06640625 132.41015625 14.4140625 134.4609375 C3.73406886 145.03139275 3.73406886 145.03139275 -1.93359375 147.41015625 C-6.90330217 147.28162931 -10.83281521 144.26184655 -14.93359375 141.72265625 C-40.60754962 126.29631571 -69.79776339 120.37118098 -99.5703125 124.21875 C-101.25120972 124.41754761 -101.25120972 124.41754761 -102.96606445 124.62036133 C-105.14946372 124.89131271 -107.32777009 125.20833584 -109.49682617 125.5769043 C-112.5812732 125.95682367 -114.90522885 126.12637031 -117.93359375 125.41015625 C-121.1344062 122.52389134 -122.99119369 119.22448535 -124.93359375 115.41015625 C-125.30983887 114.71680176 -125.68608398 114.02344727 -126.07373047 113.30908203 C-127.0292702 111.45239854 -127.87387736 109.58453427 -128.68359375 107.66015625 C-128.97379395 106.97679199 -129.26399414 106.29342773 -129.56298828 105.58935547 C-138.60911529 83.47830705 -137.19545805 60.40341174 -128.93359375 38.41015625 C-128.60359375 37.75015625 -128.27359375 37.09015625 -127.93359375 36.41015625 C-127.69832055 34.30161589 -127.69832055 34.30161589 -127.68359375 31.97265625 C-127.64492187 30.79896484 -127.64492187 30.79896484 -127.60546875 29.6015625 C-128.01088812 26.8939403 -128.97477468 26.23195948 -130.93359375 24.41015625 C-131.32012702 21.31789012 -131.52363705 19.32800138 -129.80859375 16.66015625 C-127.93359375 15.41015625 -127.93359375 15.41015625 -124.99609375 14.53515625 C-121.27510831 13.16826364 -120.30364587 11.52084965 -117.93359375 8.41015625 C-113.63036255 5.11352884 -109.95111098 3.69224686 -104.68359375 2.53515625 C-98.91981167 1.15777669 -94.39782824 -0.82976617 -89.44921875 -4.07421875 C-64.21940246 -19.2747913 -23.33891837 -19.18977733 0 0 Z " fill="#F59321" transform="translate(298.93359375,176.58984375)"/>
<path d="M0 0 C1.60054669 1.36666273 3.19320089 2.74190466 4.78295898 4.12109375 C7.79110301 6.70910593 10.88542168 9.13525965 14.04077148 11.5390625 C16.0789522 13.13511478 18.07157496 14.76113844 20.05639648 16.421875 C34.45364497 28.4301714 49.44099517 38.82512348 66.57983398 46.52734375 C67.59561523 46.9965625 68.61139648 47.46578125 69.65795898 47.94921875 C83.94997163 54.01022935 100.23776396 56.55437121 115.57983398 58.52734375 C112.60840438 60.50829682 110.69685848 61.14209894 107.27514648 61.96484375 C106.22375488 62.21927246 105.17236328 62.47370117 104.08911133 62.73583984 C102.41389404 63.12763428 102.41389404 63.12763428 100.70483398 63.52734375 C99.56095215 63.79498535 98.41707031 64.06262695 97.23852539 64.33837891 C94.02172435 65.08099988 90.802032 65.80854573 87.57983398 66.52734375 C86.34749023 66.80320312 85.11514648 67.0790625 83.84545898 67.36328125 C61.94212666 71.44795674 40.86963513 68.35949264 20.95874023 58.7890625 C0.45013623 48.95877582 -23.04304271 42.79336188 -45.42016602 50.52734375 C-49.84945232 52.41026049 -54.14693609 54.55464755 -58.45874023 56.68969727 C-80.5450727 67.57002595 -105.39509879 72.56259213 -129.95532227 72.765625 C-131.43220268 72.78017982 -131.43220268 72.78017982 -132.93891907 72.79502869 C-136.12020999 72.81989581 -139.30128762 72.83255482 -142.48266602 72.83984375 C-143.57097717 72.84246216 -144.65928833 72.84508057 -145.78057861 72.84777832 C-171.13830862 72.85429762 -195.73106866 70.57890868 -220.42016602 64.52734375 C-220.42016602 64.19734375 -220.42016602 63.86734375 -220.42016602 63.52734375 C-219.52523437 63.45741211 -218.63030273 63.38748047 -217.70825195 63.31542969 C-174.32356387 59.85133778 -131.80827626 52.35668598 -102.03735352 17.64453125 C-96.01457728 9.75964062 -93.62993515 1.15830301 -94.82641602 -8.671875 C-96.68697191 -17.448313 -101.63982436 -23.79958813 -108.42016602 -29.47265625 C-110.06837845 -30.50278902 -111.72612767 -31.51975968 -113.42016602 -32.47265625 C-113.42016602 -33.13265625 -113.42016602 -33.79265625 -113.42016602 -34.47265625 C-69.58454944 -40.27374105 -33.42576562 -28.12394474 0 0 Z " fill="#2090B9" transform="translate(306.420166015625,340.47265625)"/>
<path d="M0 0 C9.60030973 7.07651697 13.82057871 17.62738346 16 29 C16.45439453 28.09507812 16.45439453 28.09507812 16.91796875 27.171875 C21.43048203 18.56338813 21.43048203 18.56338813 26 16 C29.0625 15.4375 29.0625 15.4375 32 16 C34.375 18.5 34.375 18.5 36 21 C33.69 21.33 31.38 21.66 29 22 C29 22.66 29 23.32 29 24 C30.299375 24.37125 30.299375 24.37125 31.625 24.75 C35.19518017 26.07228895 37.94422811 27.74454932 41 30 C41 30.33 41 30.66 41 31 C34.565 32.98 34.565 32.98 28 35 C30.413125 35.061875 30.413125 35.061875 32.875 35.125 C40.9738366 35.84605771 47.70149603 39.85663207 53 46 C53 46.99 53 47.98 53 49 C49.7 50.65 46.4 52.3 43 54 C41.515 53.01 41.515 53.01 40 52 C40.495 53.98 40.495 53.98 41 56 C37.04 57.98 37.04 57.98 33 60 C32.67 59.67 32.34 59.34 32 59 C31.34 59.99 30.68 60.98 30 62 C28.125 61.6875 28.125 61.6875 26 61 C25.34 60.01 24.68 59.02 24 58 C23.99742188 58.79921875 23.99484375 59.5984375 23.9921875 60.421875 C23.55485613 72.84208596 19.0396517 81.37526442 10.734375 90.453125 C9 92 9 92 7 92 C6.261959 77.21867882 6.261959 77.21867882 11 71 C9.515 71.495 9.515 71.495 8 72 C7.67 66.72 7.34 61.44 7 56 C-3.64776937 74.94942006 -8.67305044 93.32415023 -10 115 C-9.10244995 114.86368164 -9.10244995 114.86368164 -8.18676758 114.72460938 C21.25190114 110.31432193 21.25190114 110.31432193 33 114 C32.75324676 106.35064965 30.77275077 101.03985274 26 95 C23.76139701 93.08375584 21.49067108 91.59402949 19 90 C19 89.34 19 88.68 19 88 C47.67692918 83.54066891 72.79777841 91.35152086 95.92578125 107.9453125 C101.7556244 112.24751952 107.30638753 116.88735639 112.8515625 121.546875 C117.4036853 125.36561212 122.07864236 129.01755953 126.79931641 132.625 C130.89437758 135.78875516 130.89437758 135.78875516 132 138 C129.38676691 145.20000158 124.87345104 151.18556562 120 157 C114.53972224 156.08995371 109.54737523 154.07359599 104.375 152.15625 C93.00918315 148.26240534 77.00378069 147.86007612 66 153 C63.87154205 154.09748613 61.74691819 155.20242243 59.625 156.3125 C53.94350371 159.28336176 48.1936367 161.44362264 42.0625 163.3125 C40.90258545 163.67565308 40.90258545 163.67565308 39.71923828 164.04614258 C25.91547312 168.07472753 11.87871088 168.3681442 -2.375 168.3125 C-3.6809613 168.3117598 -3.6809613 168.3117598 -5.01330566 168.31100464 C-20.67049176 168.28391546 -36.76718539 168.00693011 -52 164 C-51.67 163.01 -51.34 162.02 -51 161 C-48.16219723 160.05406574 -45.61953318 159.72968281 -42.65722656 159.45581055 C-24.64890228 157.73772347 -0.24990823 153.24990823 13 140 C5.03579031 140.6526369 -2.51318792 142.88889872 -10.1875 145 C-12.22176651 145.55521692 -14.25644362 146.10886959 -16.2915802 146.66088867 C-18.13032971 147.16030176 -19.9679105 147.66401206 -21.80541992 148.16796875 C-26.16589076 149.3036573 -30.1318263 150.12835492 -34.64453125 150.09765625 C-35.48564453 150.09443359 -36.32675781 150.09121094 -37.19335938 150.08789062 C-38.05767578 150.07951172 -38.92199219 150.07113281 -39.8125 150.0625 C-40.69615234 150.05798828 -41.57980469 150.05347656 -42.49023438 150.04882812 C-44.66018559 150.03709866 -46.83010172 150.01916495 -49 150 C-49 149.01 -49 148.02 -49 147 C-47.86046875 146.85304688 -46.7209375 146.70609375 -45.546875 146.5546875 C-34.11046279 144.97379685 -23.42960541 142.25386714 -12.43896484 138.76855469 C-8.55686491 137.54524632 -4.66218078 136.37332877 -0.75 135.25 C0.34477661 134.93506592 0.34477661 134.93506592 1.46166992 134.61376953 C7.84331952 132.86820277 14.1505984 132.17612293 20.7421875 131.75 C24.75552089 130.82606713 25.82698826 129.40693297 28 126 C22.27286197 125.68761065 16.92158152 126.21986233 11.28515625 127.2265625 C10.54552643 127.35808212 9.80589661 127.48960175 9.04385376 127.62510681 C-0.22646449 129.33446537 -9.31212594 131.76403452 -18.42138672 134.16870117 C-28.59112204 136.84158562 -38.5320142 138.88923361 -49 140 C-49.12119429 134.41840895 -48.38730437 132.21947136 -44.8828125 127.95703125 C-38.03764024 120.84202855 -30.56183425 118.6847745 -21 117 C-21.34059636 104.11926489 -25.63995155 91.52158129 -33 81 C-33 83.64 -33 86.28 -33 89 C-33.99 89.495 -33.99 89.495 -35 90 C-34.01 90.99 -34.01 90.99 -33 92 C-32.5859375 94.3828125 -32.5859375 94.3828125 -32.375 97.125 C-32.30023438 98.03507812 -32.22546875 98.94515625 -32.1484375 99.8828125 C-32.09945312 100.58148438 -32.05046875 101.28015625 -32 102 C-37.29345324 99.67408873 -40.70217394 95.53385088 -43.3125 90.4375 C-44.10058883 87.64336689 -44.59898843 84.87391622 -45 82 C-45.66 82.99 -46.32 83.98 -47 85 C-47.66 85 -48.32 85 -49 85 C-49.4125 86.03125 -49.825 87.0625 -50.25 88.125 C-51.81096297 91.75738302 -53.61347818 94.84363244 -56 98 C-56.66 98 -57.32 98 -58 98 C-59.30148702 95.39702597 -59.09720133 93.46584502 -59.0625 90.5625 C-59.05347656 89.59441406 -59.04445313 88.62632812 -59.03515625 87.62890625 C-59.02355469 86.76136719 -59.01195312 85.89382813 -59 85 C-59 84.01 -59 83.02 -59 82 C-61.97 82 -64.94 82 -68 82 C-66.50059358 76.66877718 -63.066196 72.63362195 -59 69 C-56.32429278 67.58976688 -53.93513166 66.82389661 -51 66 C-53.31 65.67 -55.62 65.34 -58 65 C-56.74568359 60.5053662 -55.21374355 57.40851589 -52 54 C-49 53 -49 53 -46.5 54.125 C-43.78491695 56.16131229 -42.53807831 58.00479488 -41 61 C-40.76216797 59.93072266 -40.76216797 59.93072266 -40.51953125 58.83984375 C-38.97651769 52.50581571 -37.29064017 47.95073866 -33 43 C-32.34 43 -31.68 43 -31 43 C-31.01160156 43.66386719 -31.02320313 44.32773438 -31.03515625 45.01171875 C-31.11893409 51.56306787 -31.11893409 51.56306787 -30 58 C-29.071875 57.505 -28.14375 57.01 -27.1875 56.5 C-22.32318559 54.40108315 -17.21074763 54.3611026 -12 55 C-11.01 55.66 -10.02 56.32 -9 57 C-12.53637896 60.04293074 -15.91036181 62.71461395 -20 65 C-19.05125 65.598125 -18.1025 66.19625 -17.125 66.8125 C-14 69 -14 69 -12 72 C-12 72.99 -12 73.98 -12 75 C-14.26154894 76.13077447 -15.49882829 76.10387968 -18 76.0625 C-18.70125 76.05347656 -19.4025 76.04445313 -20.125 76.03515625 C-20.74375 76.02355469 -21.3625 76.01195312 -22 76 C-24.42797311 76 -26.62907005 76.50085685 -29 77 C-28.54109375 77.67804688 -28.0821875 78.35609375 -27.609375 79.0546875 C-26.99578125 79.98539062 -26.3821875 80.91609375 -25.75 81.875 C-25.14671875 82.77992188 -24.5434375 83.68484375 -23.921875 84.6171875 C-21.4796911 88.91582827 -19.74049066 93.38118149 -18 98 C-17.82984375 97.3922876 -17.6596875 96.7845752 -17.484375 96.15844727 C-13.06747839 80.56862303 -8.32872051 65.42425634 1 52 C-3.455 52.495 -3.455 52.495 -8 53 C-8.33 52.01 -8.66 51.02 -9 50 C-9.39445312 50.47695313 -9.78890625 50.95390625 -10.1953125 51.4453125 C-13.49417639 54.28719092 -17.7875641 54.14086171 -22 54 C-25.125 52.5625 -25.125 52.5625 -27 51 C-26.58020131 46.24228152 -24.43142078 43.17080654 -21 40 C-18.72346832 38.46817227 -16.45294601 37.25052149 -14 36 C-16.12012304 34.92769759 -18.24649325 33.88577142 -20.40234375 32.88671875 C-25.48956095 30.48028473 -29.32667308 28.28554807 -33 24 C-24.06753467 19.93978849 -14.13933779 19.77876806 -5.01953125 23.1328125 C-2.52418106 24.20431684 -0.24755462 25.477463 2 27 C1.7834375 25.95199219 1.7834375 25.95199219 1.5625 24.8828125 C1.376875 23.97273438 1.19125 23.06265625 1 22.125 C0.814375 21.22007812 0.62875 20.31515625 0.4375 19.3828125 C0 17 0 17 0 15 C-0.495 14.01 -0.495 14.01 -1 13 C-1.0962762 10.98103136 -1.12981825 8.9587571 -1.125 6.9375 C-1.12757812 5.85339844 -1.13015625 4.76929688 -1.1328125 3.65234375 C-1 1 -1 1 0 0 Z " fill="#2190B9" transform="translate(72,207)"/>
<path d="M0 0 C0.05406122 1.93719378 0.09282025 3.87481921 0.125 5.8125 C0.14820313 6.89144531 0.17140625 7.97039062 0.1953125 9.08203125 C0 12 0 12 -2 15 C-1.835 15.5775 -1.67 16.155 -1.5 16.75 C-0.74734299 20.13695655 -1.94244051 22.76511215 -3 26 C-2.39414062 25.65066406 -1.78828125 25.30132812 -1.1640625 24.94140625 C9.26094862 19.27982329 18.49905418 19.14148004 30 22 C30.99 22.99 30.99 22.99 32 24 C26.13210971 28.89271082 20.03990711 32.07533271 13 35 C13.60328125 35.36351562 14.2065625 35.72703125 14.828125 36.1015625 C19.76111784 39.20457413 23.45330373 41.67508962 26 47 C26.125 49.25 26.125 49.25 25 51 C20.27984493 53.47808141 15.06789338 53.51023223 10 52 C9.34 51.01 8.68 50.02 8 49 C8 49.99 8 50.98 8 52 C4.7 51.67 1.4 51.34 -2 51 C-1.41992188 51.95777344 -0.83984375 52.91554688 -0.2421875 53.90234375 C7.27416702 66.6005008 12.22682807 79.4663361 15.45703125 93.875 C15.79987118 95.96988586 15.79987118 95.96988586 17 97 C17.20753906 96.48953125 17.41507812 95.9790625 17.62890625 95.453125 C20.52163559 88.6267679 24.17853912 82.34405444 28 76 C25.03 75.01 25.03 75.01 22 74 C21.67 74.33 21.34 74.66 21 75 C13.47761194 75.23880597 13.47761194 75.23880597 11 74 C11.29459009 70.46491897 11.74881413 69.23796556 14.375 66.75 C17 65 17 65 20 64 C19.46890625 63.76925781 18.9378125 63.53851563 18.390625 63.30078125 C13.79832691 61.18061443 10.88155149 59.32232724 8 55 C15.63638979 52.86731456 21.82436328 53.86881307 29 57 C30.03590199 51.94997778 30.10251672 47.12583611 30 42 C34.19550588 43.39850196 34.84954391 45.72248614 36.859375 49.5 C38.43712595 52.95808428 39.25557537 56.27787685 40 60 C40.515625 59.030625 41.03125 58.06125 41.5625 57.0625 C44 54 44 54 47.5 52.8125 C51 53 51 53 53.3125 55.0625 C55.00017751 58.00030901 56.09089266 60.74236536 57 64 C53.535 64.495 53.535 64.495 50 65 C50.58007812 65.20753906 51.16015625 65.41507812 51.7578125 65.62890625 C58.83688314 68.42081695 63.12595949 71.996368 66.375 78.9375 C66.58125 79.618125 66.7875 80.29875 67 81 C63.66666667 81 60.33333333 81 57 81 C57.16371094 81.55171875 57.32742188 82.1034375 57.49609375 82.671875 C58.05760414 85.26614007 58.09739008 87.59835411 58.0625 90.25 C58.05347656 91.14203125 58.04445313 92.0340625 58.03515625 92.953125 C58.01775391 93.96632813 58.01775391 93.96632813 58 95 C57.01 95.33 56.02 95.66 55 96 C54.01287122 94.75627811 53.03560095 93.50472782 52.0625 92.25 C51.51722656 91.55390625 50.97195313 90.8578125 50.41015625 90.140625 C49 88 49 88 48.49609375 85.796875 C48.33238281 85.20390625 48.16867187 84.6109375 48 84 C47.01 83.67 46.02 83.34 45 83 C44.67 82.34 44.34 81.68 44 81 C43.85304688 81.87011719 43.85304688 81.87011719 43.703125 82.7578125 C42.20257317 90.59690221 39.0003821 95.63123707 33 101 C32.34 101 31.68 101 31 101 C31.11398665 99.37419034 31.24155659 97.74932843 31.375 96.125 C31.44460938 95.22007812 31.51421875 94.31515625 31.5859375 93.3828125 C32 91 32 91 34 89 C33.34 88.67 32.68 88.34 32 88 C32 85.36 32 82.72 32 80 C24.14718215 91.52175734 21.60449512 103.50649871 19 117 C20.16144531 117.12632812 21.32289063 117.25265625 22.51953125 117.3828125 C26.67125907 117.90394988 30.63949484 118.80163378 34.6875 119.875 C35.94949219 120.20242188 37.21148437 120.52984375 38.51171875 120.8671875 C41.72490054 121.91066199 44.2051762 123.12965903 47 125 C47.33 124.34 47.66 123.68 48 123 C52.20172849 125.52103709 54.88106444 127.52669159 57 132 C57 132.66 57 133.32 57 134 C56.34 134 55.68 134 55 134 C55 135.32 55 136.64 55 138 C42.59932348 141.93894922 27.11778137 136.07264263 15.125 132.875 C12.38409344 132.15335454 9.64228254 131.43561256 6.89865112 130.72439575 C5.20641154 130.2848465 3.51583724 129.83882481 1.82717896 129.38571167 C-0.10422735 128.87983084 -2.05101703 128.43325637 -4 128 C-4.33 128.33 -4.66 128.66 -5 129 C10.28881452 141.98396811 32.60209136 145.13322134 52 146 C51.67 146.99 51.34 147.98 51 149 C42.75 149 34.5 149 26 149 C34.59827552 152.49600213 42.90236362 155.16856092 52 157 C51.67 158.98 51.34 160.96 51 163 C28.95225407 169.52810354 9.83043091 167.29424029 -10.55615234 157.51074219 C-24.55149387 150.86214107 -39.76939926 148.75718369 -54.87109375 152.859375 C-59.83515128 154.66899397 -64.37292262 157.17661513 -68.96875 159.76953125 C-72 161 -72 161 -74.03515625 160.4765625 C-74.68355469 159.98929688 -75.33195312 159.50203125 -76 159 C-76.91652344 158.34128906 -77.83304687 157.68257812 -78.77734375 157.00390625 C-84.66517166 152.45521349 -90.48603239 147.84362347 -96.1875 143.0625 C-97.01592407 142.37232788 -97.01592407 142.37232788 -97.86108398 141.66821289 C-100.34902756 139.55792799 -102.17536855 137.73694717 -104 135 C-103.54109375 134.52691406 -103.0821875 134.05382812 -102.609375 133.56640625 C-96.91104641 127.42514035 -92.91119552 121.56878406 -92.5 113 C-92.83349158 106.47164976 -94.64572794 101.39074099 -99.26953125 96.6953125 C-100.8750763 95.27434192 -102.50817942 93.8836735 -104.171875 92.53125 C-105.07679688 91.77328125 -105.07679688 91.77328125 -106 91 C-106 90.67 -106 90.34 -106 90 C-82.4643075 84.68643341 -58.4383412 91.00466085 -38.1484375 102.99609375 C-35.48589092 104.69074188 -33.19280305 106.44516696 -30.8125 108.5 C-27.7620894 110.8975568 -25.90343987 111.25238425 -22.0546875 111.0625 C-15.69869098 110.91477202 -9.60201443 111.64496497 -3.3125 112.5 C-2.21744141 112.64308594 -1.12238281 112.78617187 0.00585938 112.93359375 C2.67146741 113.28280004 5.33605646 113.63835259 8 114 C8.131568 107.71722209 7.93170869 101.69779844 6.875 95.5 C6.74520752 94.7380835 6.61541504 93.97616699 6.48168945 93.19116211 C4.32508304 81.47924116 0.68786508 64.68786508 -8 56 C-8.33 60.95 -8.66 65.9 -9 71 C-9.99 71 -10.98 71 -12 71 C-11.01773438 71.99580078 -11.01773438 71.99580078 -10.015625 73.01171875 C-7.52756471 76.70041279 -7.53714834 79.53500029 -7.75 83.8125 C-7.76804687 84.50537109 -7.78609375 85.19824219 -7.8046875 85.91210938 C-7.85148936 87.60867664 -7.92322376 89.30452476 -8 91 C-14.70736826 88.26015984 -19.26116661 80.97035725 -22.4375 74.6875 C-24.7406338 69.04634408 -24.81380467 63.02341893 -25 57 C-25.99 57.495 -25.99 57.495 -27 58 C-29.43017578 56.86010742 -29.43017578 56.86010742 -32.4453125 55.10546875 C-34.05986328 54.16670898 -34.05986328 54.16670898 -35.70703125 53.20898438 C-36.83496094 52.54189453 -37.96289062 51.87480469 -39.125 51.1875 C-40.82849609 50.20426758 -40.82849609 50.20426758 -42.56640625 49.20117188 C-48.82246663 45.53240177 -48.82246663 45.53240177 -51 44 C-51 43.34 -51 42.68 -51 42 C-44.2882002 35.96518289 -37.77955774 34.70236462 -29 34 C-33.62 33.01 -38.24 32.02 -43 31 C-41.60970863 26.82912589 -38.72156282 25.81791302 -35.0625 23.8125 C-34.41603516 23.44447266 -33.76957031 23.07644531 -33.10351562 22.69726562 C-28.28446776 20 -28.28446776 20 -26 20 C-26 19.34 -26 18.68 -26 18 C-28.31 17.67 -30.62 17.34 -33 17 C-32.67 16.34 -32.34 15.68 -32 15 C-26.01372998 15 -26.01372998 15 -23.26953125 17.70703125 C-20.80626927 20.98529842 -18.77053012 24.30100514 -17 28 C-16.82984375 27.29875 -16.6596875 26.5975 -16.484375 25.875 C-14.66740305 18.76174813 -9.43653924 0 0 0 Z M49 127 C49.33 127.66 49.66 128.32 50 129 C50.66 128.67 51.32 128.34 52 128 C51.01 127.67 50.02 127.34 49 127 Z M52 130 C53 132 53 132 53 132 Z " fill="#2090B9" transform="translate(426,211)"/>
<path d="M0 0 C2.72634195 1.86050934 5.20868036 2.24104918 8.44140625 2.84765625 C16.15038554 4.51189898 20.79512293 7.51872195 26.06640625 13.41015625 C26.06640625 14.07015625 26.06640625 14.73015625 26.06640625 15.41015625 C27.20078125 15.55453125 28.33515625 15.69890625 29.50390625 15.84765625 C33.06640625 16.41015625 33.06640625 16.41015625 34.06640625 17.41015625 C34.31640625 20.78515625 34.31640625 20.78515625 34.06640625 24.41015625 C33.58558594 24.84199219 33.10476563 25.27382812 32.609375 25.71875 C30.28530028 28.26640659 30.454406 30.71465325 30.12890625 34.09765625 C28.9356614 43.37632824 26.62857263 48.99590281 19.25390625 54.93359375 C9.08694956 61.79628952 -3.56674171 60.10213025 -15.04101562 57.89111328 C-24.82873892 55.74738395 -33.71767414 51.46715469 -39.93359375 43.41015625 C-44.68665227 35.48839206 -44.70844678 27.2844214 -42.93359375 18.41015625 C-46.28687014 16.17463866 -46.84103032 16.23732097 -50.62109375 16.78515625 C-51.42933594 16.89601562 -52.23757812 17.006875 -53.0703125 17.12109375 C-53.99263672 17.26417969 -53.99263672 17.26417969 -54.93359375 17.41015625 C-54.45019531 18.46976563 -54.45019531 18.46976563 -53.95703125 19.55078125 C-51.6823757 25.90592577 -52.02102681 33.07447004 -54.62109375 39.28515625 C-59.06617841 48.61434627 -66.60417033 52.88429706 -75.93359375 56.41015625 C-86.99023097 59.70510375 -100.73504385 62.30571598 -111.55859375 57.22265625 C-117.64297403 53.63649834 -123.18421624 48.50028048 -125.5390625 41.6484375 C-126.07115325 38.62974441 -126.02672274 35.72305493 -125.99609375 32.66015625 C-125.98707031 31.4896875 -125.97804687 30.31921875 -125.96875 29.11328125 C-125.95714844 28.22125 -125.94554687 27.32921875 -125.93359375 26.41015625 C-126.57296875 26.26578125 -127.21234375 26.12140625 -127.87109375 25.97265625 C-129.93359375 25.41015625 -129.93359375 25.41015625 -130.93359375 24.41015625 C-131.39316822 19.12504987 -131.39316822 19.12504987 -129.80859375 16.66015625 C-127.93359375 15.41015625 -127.93359375 15.41015625 -124.99609375 14.53515625 C-121.27510831 13.16826364 -120.30364587 11.52084965 -117.93359375 8.41015625 C-113.63036255 5.11352884 -109.95111098 3.69224686 -104.68359375 2.53515625 C-98.91981167 1.15777669 -94.39782824 -0.82976617 -89.44921875 -4.07421875 C-64.21940246 -19.2747913 -23.33891837 -19.18977733 0 0 Z " fill="#402924" transform="translate(298.93359375,176.58984375)"/>
<path d="M0 0 C9.60030973 7.07651697 13.82057871 17.62738346 16 29 C16.45439453 28.09507812 16.45439453 28.09507812 16.91796875 27.171875 C21.43048203 18.56338813 21.43048203 18.56338813 26 16 C29.0625 15.4375 29.0625 15.4375 32 16 C34.375 18.5 34.375 18.5 36 21 C33.69 21.33 31.38 21.66 29 22 C29 22.66 29 23.32 29 24 C30.299375 24.37125 30.299375 24.37125 31.625 24.75 C35.19518017 26.07228895 37.94422811 27.74454932 41 30 C41 30.33 41 30.66 41 31 C34.565 32.98 34.565 32.98 28 35 C30.413125 35.061875 30.413125 35.061875 32.875 35.125 C40.9738366 35.84605771 47.70149603 39.85663207 53 46 C53 46.99 53 47.98 53 49 C49.7 50.65 46.4 52.3 43 54 C41.515 53.01 41.515 53.01 40 52 C40.495 53.98 40.495 53.98 41 56 C37.04 57.98 37.04 57.98 33 60 C32.67 59.67 32.34 59.34 32 59 C31.34 59.99 30.68 60.98 30 62 C28.125 61.6875 28.125 61.6875 26 61 C25.34 60.01 24.68 59.02 24 58 C23.99742188 58.79921875 23.99484375 59.5984375 23.9921875 60.421875 C23.55485613 72.84208596 19.0396517 81.37526442 10.734375 90.453125 C9 92 9 92 7 92 C6.261959 77.21867882 6.261959 77.21867882 11 71 C9.515 71.495 9.515 71.495 8 72 C7.67 66.72 7.34 61.44 7 56 C-3.64776937 74.94942006 -8.67305044 93.32415023 -10 115 C-9.10244995 114.86368164 -9.10244995 114.86368164 -8.18676758 114.72460938 C21.25190114 110.31432193 21.25190114 110.31432193 33 114 C32.25 120.625 32.25 120.625 30 124 C28.20458984 124.54907227 28.20458984 124.54907227 25.9609375 124.81640625 C24.65467407 124.99550537 24.65467407 124.99550537 23.32202148 125.17822266 C22.34950439 125.30503418 21.3769873 125.4318457 20.375 125.5625 C6.77365778 127.55116896 -6.39536847 130.97135242 -19.67236328 134.47094727 C-29.42918777 137.01718731 -38.95819798 138.97137823 -49 140 C-49.12119429 134.41840895 -48.38730437 132.21947136 -44.8828125 127.95703125 C-38.03764024 120.84202855 -30.56183425 118.6847745 -21 117 C-21.34059636 104.11926489 -25.63995155 91.52158129 -33 81 C-33 83.64 -33 86.28 -33 89 C-33.99 89.495 -33.99 89.495 -35 90 C-34.01 90.99 -34.01 90.99 -33 92 C-32.5859375 94.3828125 -32.5859375 94.3828125 -32.375 97.125 C-32.30023438 98.03507812 -32.22546875 98.94515625 -32.1484375 99.8828125 C-32.09945312 100.58148438 -32.05046875 101.28015625 -32 102 C-37.29345324 99.67408873 -40.70217394 95.53385088 -43.3125 90.4375 C-44.10058883 87.64336689 -44.59898843 84.87391622 -45 82 C-45.66 82.99 -46.32 83.98 -47 85 C-47.66 85 -48.32 85 -49 85 C-49.4125 86.03125 -49.825 87.0625 -50.25 88.125 C-51.81096297 91.75738302 -53.61347818 94.84363244 -56 98 C-56.66 98 -57.32 98 -58 98 C-59.30148702 95.39702597 -59.09720133 93.46584502 -59.0625 90.5625 C-59.05347656 89.59441406 -59.04445313 88.62632812 -59.03515625 87.62890625 C-59.02355469 86.76136719 -59.01195312 85.89382813 -59 85 C-59 84.01 -59 83.02 -59 82 C-61.97 82 -64.94 82 -68 82 C-66.50059358 76.66877718 -63.066196 72.63362195 -59 69 C-56.32429278 67.58976688 -53.93513166 66.82389661 -51 66 C-53.31 65.67 -55.62 65.34 -58 65 C-56.74568359 60.5053662 -55.21374355 57.40851589 -52 54 C-49 53 -49 53 -46.5 54.125 C-43.78491695 56.16131229 -42.53807831 58.00479488 -41 61 C-40.76216797 59.93072266 -40.76216797 59.93072266 -40.51953125 58.83984375 C-38.97651769 52.50581571 -37.29064017 47.95073866 -33 43 C-32.34 43 -31.68 43 -31 43 C-31.01160156 43.66386719 -31.02320313 44.32773438 -31.03515625 45.01171875 C-31.11893409 51.56306787 -31.11893409 51.56306787 -30 58 C-29.071875 57.505 -28.14375 57.01 -27.1875 56.5 C-22.32318559 54.40108315 -17.21074763 54.3611026 -12 55 C-11.01 55.66 -10.02 56.32 -9 57 C-12.53637896 60.04293074 -15.91036181 62.71461395 -20 65 C-19.05125 65.598125 -18.1025 66.19625 -17.125 66.8125 C-14 69 -14 69 -12 72 C-12 72.99 -12 73.98 -12 75 C-14.26154894 76.13077447 -15.49882829 76.10387968 -18 76.0625 C-18.70125 76.05347656 -19.4025 76.04445313 -20.125 76.03515625 C-20.74375 76.02355469 -21.3625 76.01195312 -22 76 C-24.42797311 76 -26.62907005 76.50085685 -29 77 C-28.54109375 77.67804688 -28.0821875 78.35609375 -27.609375 79.0546875 C-26.99578125 79.98539062 -26.3821875 80.91609375 -25.75 81.875 C-25.14671875 82.77992188 -24.5434375 83.68484375 -23.921875 84.6171875 C-21.4796911 88.91582827 -19.74049066 93.38118149 -18 98 C-17.82984375 97.3922876 -17.6596875 96.7845752 -17.484375 96.15844727 C-13.06747839 80.56862303 -8.32872051 65.42425634 1 52 C-3.455 52.495 -3.455 52.495 -8 53 C-8.33 52.01 -8.66 51.02 -9 50 C-9.39445312 50.47695313 -9.78890625 50.95390625 -10.1953125 51.4453125 C-13.49417639 54.28719092 -17.7875641 54.14086171 -22 54 C-25.125 52.5625 -25.125 52.5625 -27 51 C-26.58020131 46.24228152 -24.43142078 43.17080654 -21 40 C-18.72346832 38.46817227 -16.45294601 37.25052149 -14 36 C-16.12012304 34.92769759 -18.24649325 33.88577142 -20.40234375 32.88671875 C-25.48956095 30.48028473 -29.32667308 28.28554807 -33 24 C-24.06753467 19.93978849 -14.13933779 19.77876806 -5.01953125 23.1328125 C-2.52418106 24.20431684 -0.24755462 25.477463 2 27 C1.7834375 25.95199219 1.7834375 25.95199219 1.5625 24.8828125 C1.376875 23.97273438 1.19125 23.06265625 1 22.125 C0.814375 21.22007812 0.62875 20.31515625 0.4375 19.3828125 C0 17 0 17 0 15 C-0.495 14.01 -0.495 14.01 -1 13 C-1.0962762 10.98103136 -1.12981825 8.9587571 -1.125 6.9375 C-1.12757812 5.85339844 -1.13015625 4.76929688 -1.1328125 3.65234375 C-1 1 -1 1 0 0 Z " fill="#57793E" transform="translate(72,207)"/>
<path d="M0 0 C0.05406122 1.93719378 0.09282025 3.87481921 0.125 5.8125 C0.14820313 6.89144531 0.17140625 7.97039062 0.1953125 9.08203125 C0 12 0 12 -2 15 C-1.7525 15.86625 -1.7525 15.86625 -1.5 16.75 C-0.74734299 20.13695655 -1.94244051 22.76511215 -3 26 C-2.39414062 25.65066406 -1.78828125 25.30132812 -1.1640625 24.94140625 C9.26094862 19.27982329 18.49905418 19.14148004 30 22 C30.99 22.99 30.99 22.99 32 24 C26.13210971 28.89271082 20.03990711 32.07533271 13 35 C13.60328125 35.36351562 14.2065625 35.72703125 14.828125 36.1015625 C19.76111784 39.20457413 23.45330373 41.67508962 26 47 C26.125 49.25 26.125 49.25 25 51 C20.27984493 53.47808141 15.06789338 53.51023223 10 52 C9.34 51.01 8.68 50.02 8 49 C8 49.99 8 50.98 8 52 C4.7 51.67 1.4 51.34 -2 51 C-1.41992188 51.95777344 -0.83984375 52.91554688 -0.2421875 53.90234375 C7.27416702 66.6005008 12.22682807 79.4663361 15.45703125 93.875 C15.79987118 95.96988586 15.79987118 95.96988586 17 97 C17.20753906 96.48953125 17.41507812 95.9790625 17.62890625 95.453125 C20.52163559 88.6267679 24.17853912 82.34405444 28 76 C26.02 75.34 24.04 74.68 22 74 C21.67 74.33 21.34 74.66 21 75 C13.47761194 75.23880597 13.47761194 75.23880597 11 74 C11.29459009 70.46491897 11.74881413 69.23796556 14.375 66.75 C17 65 17 65 20 64 C19.46890625 63.76925781 18.9378125 63.53851563 18.390625 63.30078125 C13.79832691 61.18061443 10.88155149 59.32232724 8 55 C15.63638979 52.86731456 21.82436328 53.86881307 29 57 C30.03590199 51.94997778 30.10251672 47.12583611 30 42 C34.19550588 43.39850196 34.84954391 45.72248614 36.859375 49.5 C38.43712595 52.95808428 39.25557537 56.27787685 40 60 C40.515625 59.030625 41.03125 58.06125 41.5625 57.0625 C44 54 44 54 47.5 52.8125 C51 53 51 53 53.3125 55.0625 C55.00017751 58.00030901 56.09089266 60.74236536 57 64 C53.535 64.495 53.535 64.495 50 65 C50.58007812 65.20753906 51.16015625 65.41507812 51.7578125 65.62890625 C58.83688314 68.42081695 63.12595949 71.996368 66.375 78.9375 C66.58125 79.618125 66.7875 80.29875 67 81 C63.66666667 81 60.33333333 81 57 81 C57.16371094 81.55171875 57.32742188 82.1034375 57.49609375 82.671875 C58.05760414 85.26614007 58.09739008 87.59835411 58.0625 90.25 C58.05347656 91.14203125 58.04445313 92.0340625 58.03515625 92.953125 C58.02355469 93.62859375 58.01195312 94.3040625 58 95 C56.515 95.495 56.515 95.495 55 96 C54.01287122 94.75627811 53.03560095 93.50472782 52.0625 92.25 C51.24458984 91.20585937 51.24458984 91.20585937 50.41015625 90.140625 C49 88 49 88 48.49609375 85.796875 C48.33238281 85.20390625 48.16867187 84.6109375 48 84 C46.515 83.505 46.515 83.505 45 83 C44.67 82.34 44.34 81.68 44 81 C43.90203125 81.58007812 43.8040625 82.16015625 43.703125 82.7578125 C42.20257317 90.59690221 39.0003821 95.63123707 33 101 C32.34 101 31.68 101 31 101 C31.11398665 99.37419034 31.24155659 97.74932843 31.375 96.125 C31.44460938 95.22007812 31.51421875 94.31515625 31.5859375 93.3828125 C32 91 32 91 34 89 C33.34 88.67 32.68 88.34 32 88 C32 85.36 32 82.72 32 80 C24.14718215 91.52175734 21.60449512 103.50649871 19 117 C20.16144531 117.12632812 21.32289063 117.25265625 22.51953125 117.3828125 C26.67125907 117.90394988 30.63949484 118.80163378 34.6875 119.875 C35.94949219 120.20242188 37.21148437 120.52984375 38.51171875 120.8671875 C41.72490054 121.91066199 44.2051762 123.12965903 47 125 C47.33 124.34 47.66 123.68 48 123 C52.20172849 125.52103709 54.88106444 127.52669159 57 132 C57 132.66 57 133.32 57 134 C56.34 134 55.68 134 55 134 C55 135.32 55 136.64 55 138 C43.63422866 141.62333972 29.35224693 136.74092193 18.27294922 133.87182617 C15.61160059 133.18403711 12.94522029 132.51938538 10.27734375 131.85742188 C8.55174279 131.42061394 6.82646968 130.98250836 5.1015625 130.54296875 C4.32011871 130.34801315 3.53867493 130.15305756 2.73355103 129.95219421 C-4.82180458 127.97547351 -12.0669932 125.45769848 -17.8125 120 C-18.52019531 119.34 -19.22789062 118.68 -19.95703125 118 C-21.98573365 116.01396629 -23.99927897 114.01420904 -26 112 C-22.13137168 110.71045723 -18.63099012 111.06517078 -14.625 111.3125 C-13.82658691 111.35882568 -13.02817383 111.40515137 -12.20556641 111.45288086 C-5.38930371 111.89006561 1.27731479 112.77661382 8 114 C8.93998388 94.57366654 3.50567338 73.3915881 -7 57 C-7.33 56.67 -7.66 56.34 -8 56 C-8.33 60.95 -8.66 65.9 -9 71 C-9.99 71 -10.98 71 -12 71 C-11.34515625 71.66386719 -10.6903125 72.32773437 -10.015625 73.01171875 C-7.52756471 76.70041279 -7.53714834 79.53500029 -7.75 83.8125 C-7.76804687 84.50537109 -7.78609375 85.19824219 -7.8046875 85.91210938 C-7.85148936 87.60867664 -7.92322376 89.30452476 -8 91 C-14.70736826 88.26015984 -19.26116661 80.97035725 -22.4375 74.6875 C-24.7406338 69.04634408 -24.81380467 63.02341893 -25 57 C-25.99 57.495 -25.99 57.495 -27 58 C-29.43017578 56.86010742 -29.43017578 56.86010742 -32.4453125 55.10546875 C-33.52167969 54.47962891 -34.59804688 53.85378906 -35.70703125 53.20898438 C-36.83496094 52.54189453 -37.96289062 51.87480469 -39.125 51.1875 C-40.82849609 50.20426758 -40.82849609 50.20426758 -42.56640625 49.20117188 C-48.82246663 45.53240177 -48.82246663 45.53240177 -51 44 C-51 43.34 -51 42.68 -51 42 C-44.2882002 35.96518289 -37.77955774 34.70236462 -29 34 C-33.62 33.01 -38.24 32.02 -43 31 C-41.60970863 26.82912589 -38.72156282 25.81791302 -35.0625 23.8125 C-34.41603516 23.44447266 -33.76957031 23.07644531 -33.10351562 22.69726562 C-28.28446776 20 -28.28446776 20 -26 20 C-26 19.34 -26 18.68 -26 18 C-28.31 17.67 -30.62 17.34 -33 17 C-32.67 16.34 -32.34 15.68 -32 15 C-26.01372998 15 -26.01372998 15 -23.26953125 17.70703125 C-20.80626927 20.98529842 -18.77053012 24.30100514 -17 28 C-16.82984375 27.29875 -16.6596875 26.5975 -16.484375 25.875 C-14.66740305 18.76174813 -9.43653924 0 0 0 Z M49 127 C49.33 127.66 49.66 128.32 50 129 C50.66 128.67 51.32 128.34 52 128 C51.01 127.67 50.02 127.34 49 127 Z M52 130 C53 132 53 132 53 132 Z " fill="#57783D" transform="translate(426,211)"/>
<path d="M0 0 C26.73 0 53.46 0 81 0 C79.43979513 9.36122924 74.52885469 17.13466368 67 23 C54.93600589 30.71596669 42.08211116 33.27399164 27.9921875 30.3828125 C17.43459207 26.546773 8.16068318 18.99882366 3 9 C2.01 6.03 1.02 3.06 0 0 Z " fill="#613813" transform="translate(210,252)"/>
<path d="M0 0 C2.51169971 1.83002756 4.82593623 2.01724062 7.87109375 2.36328125 C7.87109375 2.69328125 7.87109375 3.02328125 7.87109375 3.36328125 C6.88302734 3.36739014 5.89496094 3.37149902 4.87695312 3.37573242 C1.1788456 3.3976556 -2.51821772 3.45207832 -6.21582031 3.51586914 C-7.81011884 3.53893518 -9.40456728 3.55341792 -10.99902344 3.55883789 C-23.50219114 3.41775818 -23.50219114 3.41775818 -34.12890625 9.36328125 C-35.01449219 10.07291016 -35.01449219 10.07291016 -35.91796875 10.796875 C-37.35015928 11.95112901 -38.74460038 13.15201362 -40.12890625 14.36328125 C-40.80953125 13.86828125 -41.49015625 13.37328125 -42.19140625 12.86328125 C-45.82593117 11.00735363 -48.0845745 11.00851531 -52.12890625 11.36328125 C-53.11890625 11.81703125 -54.10890625 12.27078125 -55.12890625 12.73828125 C-58.12890625 13.36328125 -58.12890625 13.36328125 -59.8828125 12.265625 C-61.06313088 11.22806651 -62.21174078 10.15295111 -63.3203125 9.0390625 C-67.98703082 4.71504056 -72.04856433 3.90533076 -78.2734375 3.8515625 C-79.04322433 3.8336113 -79.81301117 3.8156601 -80.60612488 3.79716492 C-83.05116389 3.74322738 -85.49600957 3.70922052 -87.94140625 3.67578125 C-89.60484451 3.64259343 -91.26825732 3.60810241 -92.93164062 3.57226562 C-96.99725596 3.48751088 -101.06281561 3.42062152 -105.12890625 3.36328125 C-105.12890625 3.03328125 -105.12890625 2.70328125 -105.12890625 2.36328125 C-104.01515625 2.15703125 -102.90140625 1.95078125 -101.75390625 1.73828125 C-98.20107835 0.86096298 -95.52311628 -0.48721351 -92.44140625 -2.44921875 C-65.76927683 -19.195885 -25.5351196 -19.63158736 0 0 Z " fill="#F29324" transform="translate(299.12890625,176.63671875)"/>
<path d="M0 0 C26.27702703 0 26.27702703 0 33 5 C36.25573153 8.78084952 36.99063928 13.09498315 37 18 C36.00652893 23.7621322 33.9313555 26.87207672 30 31 C29.01 31.495 29.01 31.495 28 32 C28.51040392 36.96226036 30.87057038 40.19357705 33.625 44.1875 C35.17013621 46.42932709 36.60402369 48.65654189 38 51 C37.505 51.99 37.505 51.99 37 53 C34.11788698 53.96070434 32.30149956 54.10581883 29.3125 54.0625 C28.55090576 54.0514624 27.78931152 54.0404248 27.00463867 54.02905273 C26.34310791 54.01946533 25.68157715 54.00987793 25 54 C23.66180502 51.3773768 22.3292849 48.75213401 21 46.125 C20.6184375 45.37863281 20.236875 44.63226563 19.84375 43.86328125 C19.4828125 43.14785156 19.121875 42.43242188 18.75 41.6953125 C18.41484375 41.03547363 18.0796875 40.37563477 17.734375 39.69580078 C17 38 17 38 17 36 C14.36 35.67 11.72 35.34 9 35 C9 40.94 9 46.88 9 53 C5.04 52.67 1.08 52.34 -3 52 C-2.01 34.84 -1.02 17.68 0 0 Z M11 9 C10.67 14.61 10.34 20.22 10 26 C13.13871188 27.56935594 15.53855822 27.35201103 19 27 C22.1235883 25.21013047 22.1235883 25.21013047 24 22 C24.56746051 18.91409571 24.68960531 16.06874362 24 13 C22.33800899 10.61727503 21.38137605 10.07867758 18.51953125 9.48828125 C17.17955078 9.40126953 17.17955078 9.40126953 15.8125 9.3125 C13.4303125 9.1578125 13.4303125 9.1578125 11 9 Z " fill="#417CC6" transform="translate(243,18)"/>
<path d="M0 0 C9.75077896 2.55729618 19.33298319 5.57462996 28.9375 8.625 C31.31869285 9.38007705 33.70008461 10.13450891 36.08192444 10.88754272 C37.55257126 11.35260404 39.02283716 11.8188722 40.49266052 12.28652954 C43.64986849 13.28589325 46.78514688 14.19628672 50 15 C49.34 18.3 48.68 21.6 48 25 C44.00689181 25.99827705 43.28333721 26.04916802 39.671875 24.78515625 C38.87265625 24.51123047 38.0734375 24.23730469 37.25 23.95507812 C36.425 23.66052734 35.6 23.36597656 34.75 23.0625 C33.90953125 22.77181641 33.0690625 22.48113281 32.203125 22.18164062 C30.13194269 21.46378767 28.06466738 20.73633881 26 20 C25.87713623 20.65524658 25.75427246 21.31049316 25.62768555 21.9855957 C24.40989829 28.42305012 22.79616175 34.70145946 21 41 C21.61746094 41.10957031 22.23492187 41.21914062 22.87109375 41.33203125 C28.77712501 42.4377266 34.35197559 43.95361435 40 46 C39.125 53.625 39.125 53.625 38 57 C30.02628537 55.40006811 22.37227243 53.01924264 14.625 50.5625 C6.12265411 47.875934 -2.37333144 45.26074372 -11 43 C-11.96862277 39.62065154 -11.92663319 38.02391967 -10.5625 34.75 C-10.27503906 34.04359375 -9.98757812 33.3371875 -9.69140625 32.609375 C-9.46324219 32.07828125 -9.23507812 31.5471875 -9 31 C-8.31035156 31.19335938 -7.62070313 31.38671875 -6.91015625 31.5859375 C-5.97042969 31.84632813 -5.03070312 32.10671875 -4.0625 32.375 C-2.68771484 32.75785156 -2.68771484 32.75785156 -1.28515625 33.1484375 C2.78426858 34.20329435 6.89618792 35.08804176 11 36 C12.98 29.73 14.96 23.46 17 17 C15.185 16.566875 13.37 16.13375 11.5 15.6875 C6.49143346 14.44129269 1.78192454 12.93116183 -3 11 C-2.01 7.37 -1.02 3.74 0 0 Z " fill="#437DC7" transform="translate(23,168)"/>
<path d="M0 0 C6.11771613 0.68385346 11.83857864 2.24114313 17.74609375 3.94140625 C18.75720718 4.22853989 19.76832062 4.51567352 20.81007385 4.81150818 C24.02044923 5.72423808 27.22898013 6.64327121 30.4375 7.5625 C32.62162582 8.18466259 34.80586942 8.8064119 36.99023438 9.42773438 C42.32819584 10.94704031 47.66465945 12.47151723 53 14 C52.43224464 15.29858939 51.84508337 16.58870441 51.25 17.875 C50.92515625 18.59429687 50.6003125 19.31359375 50.265625 20.0546875 C48.75754927 22.37265576 47.58492208 23.08112624 45 24 C42.640625 23.5390625 42.640625 23.5390625 40.25 22.625 C39.45078125 22.32851562 38.6515625 22.03203125 37.828125 21.7265625 C37.22484375 21.48679688 36.6215625 21.24703125 36 21 C34.8745809 22.60387267 33.74968028 24.20810916 32.625 25.8125 C31.99851563 26.70582031 31.37203125 27.59914062 30.7265625 28.51953125 C27.94104676 31.91189506 27.94104676 31.91189506 27.18359375 35.953125 C28.13553889 38.33981998 29.34281083 39.84736517 31.0625 41.75 C31.61035156 42.36359375 32.15820312 42.9771875 32.72265625 43.609375 C33.14417969 44.06828125 33.56570312 44.5271875 34 45 C33.24266726 46.3410477 32.46867264 47.67269781 31.6875 49 C31.25824219 49.7425 30.82898438 50.485 30.38671875 51.25 C29.92910156 51.8275 29.47148438 52.405 29 53 C26 53 26 53 24.68823242 51.70922852 C24.24842041 51.10522217 23.8086084 50.50121582 23.35546875 49.87890625 C22.85015625 49.19876465 22.34484375 48.51862305 21.82421875 47.81787109 C21.01404297 46.7014624 21.01404297 46.7014624 20.1875 45.5625 C14.91079205 38.46213528 9.4438363 31.57630941 3.75854492 24.79907227 C-5.94104 13.17919996 -5.94104 13.17919996 -6.125 9.5 C-4.54212502 5.98250003 -2.36730748 3.03120183 0 0 Z M7 12 C8.67229701 15.95969176 11.36304994 19.0161201 14.125 22.25 C14.82689453 23.08144531 14.82689453 23.08144531 15.54296875 23.9296875 C16.69175328 25.28947326 17.84539653 26.64515165 19 28 C22.82669043 24.57611908 24.72278474 21.99275057 26 17 C23.39741676 16.16142312 20.79314353 15.32896656 18.1875 14.5 C17.44951172 14.26152344 16.71152344 14.02304688 15.95117188 13.77734375 C12.86744804 12.80059864 10.25504191 12 7 12 Z " fill="#427DC7" transform="translate(48,124)"/>
<path d="M0 0 C0.33 0 0.66 0 1 0 C1 1.65 1 3.3 1 5 C1.5983667 4.90912109 2.1967334 4.81824219 2.81323242 4.72460938 C32.25190114 0.31432193 32.25190114 0.31432193 44 4 C43.25 10.625 43.25 10.625 41 14 C39.20458984 14.54907227 39.20458984 14.54907227 36.9609375 14.81640625 C35.65467407 14.99550537 35.65467407 14.99550537 34.32202148 15.17822266 C32.86324585 15.36843994 32.86324585 15.36843994 31.375 15.5625 C17.77365778 17.55116896 4.60463153 20.97135242 -8.67236328 24.47094727 C-18.42918777 27.01718731 -27.95819798 28.97137823 -38 30 C-38.12119429 24.41840895 -37.38730437 22.21947136 -33.8828125 17.95703125 C-24.75499497 8.46940349 -12.64951535 6.82807211 0 6 C0 4.02 0 2.04 0 0 Z " fill="#785E49" transform="translate(61,317)"/>
<path d="M0 0 C4.63861056 4.07843385 6.9032859 10.10049486 9.6875 15.5 C10.29400391 16.65371094 10.90050781 17.80742187 11.52539062 18.99609375 C12.09837891 20.10082031 12.67136719 21.20554688 13.26171875 22.34375 C14.05002075 23.86258789 14.05002075 23.86258789 14.85424805 25.41210938 C16 28 16 28 16 31 C13.44748926 32.23979093 11.44512421 32.98843833 8.59375 33.0625 C4.44487893 31.36296245 3.46079039 27.87777144 1.6875 23.9375 C1.32849609 23.17888672 0.96949219 22.42027344 0.59960938 21.63867188 C-0.28335948 19.7667779 -1.14387587 17.88432283 -2 16 C-3.36125 16.4640625 -3.36125 16.4640625 -4.75 16.9375 C-7.16563338 17.7272263 -9.52780285 18.42949297 -12 19 C-11.22462891 20.44632813 -11.22462891 20.44632813 -10.43359375 21.921875 C-9.7675971 23.19758689 -9.10226718 24.47364701 -8.4375 25.75 C-7.92413086 26.70132813 -7.92413086 26.70132813 -7.40039062 27.671875 C-4.9651583 32.39474982 -4.9651583 32.39474982 -5.13671875 35.375 C-6 37 -6 37 -8.375 38.25 C-11 39 -11 39 -14 39 C-16.31 34.38 -18.62 29.76 -21 25 C-25.95 27.475 -25.95 27.475 -31 30 C-30.15115234 31.66289062 -30.15115234 31.66289062 -29.28515625 33.359375 C-28.54405825 34.82280903 -27.80318456 36.28635667 -27.0625 37.75 C-26.68931641 38.47960937 -26.31613281 39.20921875 -25.93164062 39.9609375 C-25.39506836 41.02441406 -25.39506836 41.02441406 -24.84765625 42.109375 C-24.51773682 42.75874023 -24.18781738 43.40810547 -23.84790039 44.07714844 C-22.98547884 46.03293079 -22.45625821 47.91540694 -22 50 C-27.625 53 -27.625 53 -31 53 C-33.02498379 49.21640765 -35.036707 45.42615711 -37.03637695 41.62915039 C-37.71863371 40.33817061 -38.40449217 39.04908763 -39.09399414 37.76196289 C-40.08389739 35.91257562 -41.06069033 34.05677624 -42.03515625 32.19921875 C-42.92279663 30.52605591 -42.92279663 30.52605591 -43.82836914 28.8190918 C-45 26 -45 26 -44 23 C-42.00073242 21.73242188 -42.00073242 21.73242188 -39.35546875 20.46875 C-38.37707031 19.99276367 -37.39867187 19.51677734 -36.390625 19.02636719 C-35.33359375 18.52266602 -34.2765625 18.01896484 -33.1875 17.5 C-21.9202052 12.01210882 -10.91881603 6.14824607 0 0 Z " fill="#437EC7" transform="translate(456,136)"/>
<path d="M0 0 C4.78722238 5.19755573 6.9247068 9.8652304 7.33984375 16.890625 C6.95323894 23.19525727 3.70722442 27.15604315 -0.8125 31.3125 C-3.43659537 33.56245677 -5.39323103 34.77204855 -8.8125 35.375 C-8.21179688 36.26703125 -7.61109375 37.1590625 -6.9921875 38.078125 C-6.22311605 39.25986894 -5.4549327 40.44219119 -4.6875 41.625 C-4.28917969 42.21152344 -3.89085937 42.79804687 -3.48046875 43.40234375 C-2.3671875 45.140625 -2.3671875 45.140625 -0.8125 48.375 C-1.66326265 51.79541309 -2.69605223 52.30314925 -5.75 54.1875 C-8.8125 55.375 -8.8125 55.375 -11.8125 54.375 C-13.22128342 51.9995838 -14.468797 49.6588129 -15.6875 47.1875 C-19.93845003 38.83634929 -24.62671195 30.79664372 -29.47021484 22.77661133 C-30.27193115 21.4408606 -30.27193115 21.4408606 -31.08984375 20.078125 C-31.56671631 19.29083008 -32.04358887 18.50353516 -32.53491211 17.69238281 C-33.84735724 15.31177337 -34.85622002 12.91720237 -35.8125 10.375 C-11.42877907 -6.60329457 -11.42877907 -6.60329457 0 0 Z M-21.8125 12.375 C-19.1725 17.655 -16.5325 22.935 -13.8125 28.375 C-5.8125 25.375 -5.8125 25.375 -3.8125 20.375 C-4.09320569 15.97727755 -5.25671949 12.95309271 -7.8125 9.375 C-13.59241574 6.48504213 -16.64283357 8.92855572 -21.8125 12.375 Z " fill="#427CC6" transform="translate(150.8125,47.625)"/>
<path d="M0 0 C21.51394935 14.07946533 21.51394935 14.07946533 24 23 C24.3565667 28.69426216 22.63090178 32.58403837 19 37 C13.66375418 42.16861506 9.3048022 43.45489961 1.99609375 43.42578125 C-3.12443915 42.69809144 -6.8745049 39.97097221 -11 37 C-11.99 36.34 -12.98 35.68 -14 35 C-14.25523437 35.56203125 -14.51046875 36.1240625 -14.7734375 36.703125 C-16.15692781 39.29386482 -17.79938583 41.45107845 -19.625 43.75 C-20.25664062 44.54921875 -20.88828125 45.3484375 -21.5390625 46.171875 C-22.02117187 46.77515625 -22.50328125 47.3784375 -23 48 C-24.34173403 47.07456291 -25.67320159 46.13422595 -27 45.1875 C-27.7425 44.66542969 -28.485 44.14335938 -29.25 43.60546875 C-29.8275 43.07566406 -30.405 42.54585937 -31 42 C-31 38.04440595 -29.76601329 37.37692666 -27.0625 34.5625 C-22.43233891 29.56509441 -18.38628249 24.30508396 -14.35400391 18.82177734 C-11.58853802 15.10091429 -8.75789125 11.42928685 -5.9375 7.75 C-5.06013184 6.60422485 -5.06013184 6.60422485 -4.16503906 5.43530273 C-2.77720946 3.62313823 -1.38886714 1.81136936 0 0 Z M4 14 C2.53308542 15.55444652 1.07679359 17.11892175 -0.375 18.6875 C-1.59316406 19.99267578 -1.59316406 19.99267578 -2.8359375 21.32421875 C-4.88977509 23.86371107 -5.9900668 25.92025866 -7 29 C-4.02508949 31.97491051 -2.25889832 32.95479553 1.9375 33.6875 C5.50576285 33.51145667 7.09546948 32.41598694 9.5 29.8125 C11.14762337 27.5690238 11.97688966 26.08823947 12.6875 23.375 C11.38010639 18.85854934 7.7726413 16.5150942 4 14 Z " fill="#417CC6" transform="translate(386,61)"/>
<path d="M0 0 C0.33 0 0.66 0 1 0 C1 2.31 1 4.62 1 7 C3.64 7.66 6.28 8.32 9 9 C9.33 7.68 9.66 6.36 10 5 C10 6.32 10 7.64 10 9 C11.010625 9.0825 12.02125 9.165 13.0625 9.25 C17.35390223 9.78834795 21.5071208 10.78929304 25.6875 11.875 C26.94949219 12.20242188 28.21148437 12.52984375 29.51171875 12.8671875 C32.72490054 13.91066199 35.2051762 15.12965903 38 17 C38.33 16.34 38.66 15.68 39 15 C43.20172849 17.52103709 45.88106444 19.52669159 48 24 C48 24.66 48 25.32 48 26 C47.34 26 46.68 26 46 26 C46 27.32 46 28.64 46 30 C34.63422866 33.62333972 20.35224693 28.74092193 9.27294922 25.87182617 C6.61160059 25.18403711 3.94522029 24.51938538 1.27734375 23.85742188 C-0.44825721 23.42061394 -2.17353032 22.98250836 -3.8984375 22.54296875 C-4.67988129 22.34801315 -5.46132507 22.15305756 -6.26644897 21.95219421 C-13.82180458 19.97547351 -21.0669932 17.45769848 -26.8125 12 C-27.52019531 11.34 -28.22789062 10.68 -28.95703125 10 C-30.98573365 8.01396629 -32.99927897 6.01420904 -35 4 C-31.13137168 2.71045723 -27.63099012 3.06517078 -23.625 3.3125 C-22.82658691 3.35882568 -22.02817383 3.40515137 -21.20556641 3.45288086 C-14.38930371 3.89006561 -7.72268521 4.77661382 -1 6 C-0.67 4.02 -0.34 2.04 0 0 Z M40 19 C40.33 19.66 40.66 20.32 41 21 C41.66 20.67 42.32 20.34 43 20 C42.01 19.67 41.02 19.34 40 19 Z M43 22 C44 24 44 24 44 24 Z " fill="#785D48" transform="translate(435,319)"/>
<path d="M0 0 C6.24211872 2.50127452 12.42574533 5.11248485 18.5 8 C19.4590625 8.45375 20.418125 8.9075 21.40625 9.375 C24.93204793 11.58393364 27.1451111 14.2902222 29 18 C29.83298427 24.40207909 29.20690211 29.02958184 25.42578125 34.3125 C21.3585156 39.12635962 17.11034011 41.62675919 10.875 42.375 C5.46596432 41.85154493 1.05176429 39.99575873 -4 38 C-6.31 42.62 -8.62 47.24 -11 52 C-17.75 49.75 -17.75 49.75 -21 48 C-19.45958124 42.92143191 -17.3170103 38.31609854 -15 33.5625 C-9.68230041 22.51294976 -4.8272076 11.2705795 0 0 Z M7 13 C5.82592979 15.26727333 4.66060261 17.53834624 3.5 19.8125 C3.16613281 20.45509766 2.83226562 21.09769531 2.48828125 21.75976562 C0.99760916 24.69547699 0 26.66126517 0 30 C5.17742863 32.47118707 5.17742863 32.47118707 10.75 32.5 C13.61578652 30.58947565 15.21948086 28.9675319 17 26 C17.55377405 22.05435986 17.69185103 19.98455724 15.375 16.6875 C12.68306135 14.77480675 10.1350079 13.98344768 7 13 Z " fill="#417CC6" transform="translate(335,34)"/>
<path d="M0 0 C5.43377348 2.55706987 9.08446142 6.82207921 12 12 C13.83795798 17.17691497 12.98185174 21.76789211 11.09375 26.8203125 C8.87147246 31.24899416 5.46671999 34.53328001 2 38 C5.63 41.63 9.26 45.26 13 49 C7.375 54.625 7.375 54.625 4 57 C2.1444613 55.00125881 0.29055876 53.00103842 -1.5625 51 C-2.07619141 50.44699219 -2.58988281 49.89398438 -3.11914062 49.32421875 C-5.92566932 46.29107594 -8.67827419 43.22508327 -11.375 40.09375 C-15.20291878 35.69776956 -19.29275409 31.59544884 -23.4375 27.5 C-24.16904297 26.77296875 -24.90058594 26.0459375 -25.65429688 25.296875 C-27.43389824 23.52890501 -29.21580918 21.76333622 -31 20 C-29.89822514 16.69467543 -29.10316567 15.98696973 -26.5 13.8125 C-22.61125867 10.52525463 -18.83384938 7.13746284 -15.078125 3.69921875 C-10.28935399 -0.21641168 -6.05325575 -0.8240034 0 0 Z M-15 15 C-15.66 15.99 -16.32 16.98 -17 18 C-13.04 22.29 -9.08 26.58 -5 31 C0.77260299 27.86824314 0.77260299 27.86824314 2 25 C2.51899581 20.50203634 2.31754808 18.50434107 -0.125 14.625 C-5.71900726 9.51742815 -9.3419969 10.37072474 -15 15 Z " fill="#3F7BC6" transform="translate(102,76)"/>
<path d="M0 0 C6.3893264 3.1946632 10.12059629 8.02743928 12.47265625 14.6640625 C13.46666148 19.06713752 13.2225426 23.51617869 13 28 C10.59454362 29.20272819 9.05003047 29.10071472 6.375 29.0625 C5.14910156 29.04896484 5.14910156 29.04896484 3.8984375 29.03515625 C3.27195312 29.02355469 2.64546875 29.01195312 2 29 C2.02320313 28.02417969 2.04640625 27.04835937 2.0703125 26.04296875 C2.08835937 24.77066406 2.10640625 23.49835938 2.125 22.1875 C2.14820313 20.92292969 2.17140625 19.65835938 2.1953125 18.35546875 C2.27581918 14.8661976 2.27581918 14.8661976 0 12 C-3.08365871 11.7497843 -3.08365871 11.7497843 -6 12 C-6.12528076 12.54414551 -6.25056152 13.08829102 -6.37963867 13.64892578 C-6.96487256 16.14539288 -7.57591921 18.63486211 -8.1875 21.125 C-8.38408203 21.9809375 -8.58066406 22.836875 -8.78320312 23.71875 C-10.37386903 30.08141364 -12.46161399 34.31570716 -17.8125 38.375 C-22.56924911 39.73407117 -26.60865858 39.49106168 -31.1875 37.875 C-36.28741911 34.47505393 -39.48961114 30.30516346 -41.5078125 24.5 C-42.57544418 19.07710894 -42.20848847 13.4979183 -42 8 C-39.47524538 6.73762269 -37.68799534 6.90143596 -34.875 6.9375 C-33.96492188 6.94652344 -33.05484375 6.95554688 -32.1171875 6.96484375 C-31.41851562 6.97644531 -30.71984375 6.98804688 -30 7 C-30.15597656 7.54527344 -30.31195313 8.09054688 -30.47265625 8.65234375 C-31.91408291 14.23667884 -32.48165386 19.34820746 -31 25 C-29.16116119 27.28728734 -29.16116119 27.28728734 -26.375 27.125 C-25.59125 27.08375 -24.8075 27.0425 -24 27 C-20.98537231 21.97562052 -19.97576115 16.84179293 -18.84375 11.12109375 C-17.72108881 6.96828685 -16.17477935 4.03238185 -12.9375 1.1875 C-8.59336058 -0.56864147 -4.6201157 -0.66743244 0 0 Z " fill="#437DC7" transform="translate(472,186)"/>
<path d="M0 0 C-0.21205078 0.96301025 -0.42410156 1.92602051 -0.64257812 2.91821289 C-1.43264235 6.51542934 -2.21307655 10.11468006 -2.99072266 13.71459961 C-3.3276451 15.2678993 -3.667124 16.82064689 -4.00927734 18.37280273 C-4.50262228 20.61299146 -4.98652507 22.85505091 -5.46875 25.09765625 C-5.62186646 25.78336197 -5.77498291 26.46906769 -5.93273926 27.17555237 C-7.4037107 34.10458257 -7.43614205 39.65540349 -5 46.3125 C-3 51.84722222 -3 51.84722222 -3 54 C-6.63 54.99 -10.26 55.98 -14 57 C-14.24492187 55.90042969 -14.48984375 54.80085938 -14.7421875 53.66796875 C-17.40313692 42.78618995 -20.77219972 36.77572334 -29 29 C-30.24750085 27.620528 -31.47867157 26.22598336 -32.6875 24.8125 C-34.43441828 22.78624157 -36.19394775 20.79217204 -38.01953125 18.8359375 C-38.67308594 18.12695312 -39.32664063 17.41796875 -40 16.6875 C-40.598125 16.05199219 -41.19625 15.41648437 -41.8125 14.76171875 C-42.204375 14.18035156 -42.59625 13.59898438 -43 13 C-42.67 12.01 -42.34 11.02 -42 10 C-37.05 9.01 -37.05 9.01 -32 8 C-30.0609583 10.24868712 -28.12372378 12.49888861 -26.1875 14.75 C-25.64029297 15.38421875 -25.09308594 16.0184375 -24.52929688 16.671875 C-21.91608821 19.71269962 -19.3441871 22.74281371 -17 26 C-14.8857645 18.05047454 -13.22590007 10.13420754 -12 2 C-10.56656 1.46809459 -9.12804633 0.94984742 -7.6875 0.4375 C-6.48673828 0.00244141 -6.48673828 0.00244141 -5.26171875 -0.44140625 C-3 -1 -3 -1 0 0 Z " fill="#437EC7" transform="translate(204,23)"/>
<path d="M0 0 C27.72 0 55.44 0 84 0 C84 7 84 7 83 10 C55.94 10 28.88 10 1 10 C0 7 0 7 0 0 Z " fill="#FEFCF9" transform="translate(209,241)"/>
<path d="M0 0 C1.38671875 1.53125 1.38671875 1.53125 2.6875 3.5 C3.12449219 4.1496875 3.56148438 4.799375 4.01171875 5.46875 C4.50091797 6.22671875 4.50091797 6.22671875 5 7 C3.6513036 10.10020681 2.25996608 11.8899561 -0.37890625 13.98828125 C-1.04889648 14.52662598 -1.71888672 15.0649707 -2.40917969 15.61962891 C-3.47507324 16.4576001 -3.47507324 16.4576001 -4.5625 17.3125 C-5.28469727 17.88919434 -6.00689453 18.46588867 -6.75097656 19.06005859 C-8.82771503 20.71482842 -10.91211313 22.35933044 -13 24 C-14.44439453 25.13888672 -14.44439453 25.13888672 -15.91796875 26.30078125 C-19.24962509 28.90695128 -22.61251387 31.46687984 -26 34 C-24.12750461 38.1822232 -21.3198047 41.32111033 -18.36328125 44.78125 C-17 47 -17 47 -17.140625 49.171875 C-18.42539953 51.90494081 -20.34641235 52.705567 -23 54 C-23.66 54 -24.32 54 -25 54 C-26.62890625 52.19921875 -26.62890625 52.19921875 -28.5625 49.6875 C-31.66413512 45.70943954 -34.79935087 41.77342097 -38 37.875 C-39.1446875 36.47894531 -39.1446875 36.47894531 -40.3125 35.0546875 C-40.869375 34.37664062 -41.42625 33.69859375 -42 33 C-38.9715301 29.89688472 -35.92231928 27.03550163 -32.5 24.375 C-28.45103468 21.18034831 -24.48915926 17.90474515 -20.5625 14.5625 C-19.46239325 13.63002701 -18.36213312 12.69773495 -17.26171875 11.765625 C-15.63789888 10.38994919 -14.01526366 9.01303664 -12.39697266 7.63085938 C-10.8955979 6.35106036 -9.38547857 5.08154144 -7.875 3.8125 C-7.00617188 3.07644531 -6.13734375 2.34039062 -5.2421875 1.58203125 C-3 0 -3 0 0 0 Z " fill="#427DC7" transform="translate(430,99)"/>
<path d="M0 0 C3.63 0.99 7.26 1.98 11 3 C8.57264053 13.60372821 6.01444781 24.17718617 3.41430664 34.73974609 C3.05455874 36.20577172 2.69730151 37.67241077 2.3425293 39.13964844 C1.83669686 41.2289461 1.32178849 43.31581065 0.8046875 45.40234375 C0.50546387 46.62429443 0.20624023 47.84624512 -0.10205078 49.10522461 C-1 52 -1 52 -3 54 C-7.95 52.515 -7.95 52.515 -13 51 C-12.75983154 50.05310303 -12.51966309 49.10620605 -12.2722168 48.13061523 C-10.41642703 40.77973521 -8.60991078 33.42014888 -6.89453125 26.03515625 C-6.7227536 25.29663422 -6.55097595 24.55811218 -6.37399292 23.79721069 C-5.67147691 20.77299359 -4.97047487 17.74844162 -4.27368164 14.72290039 C-3.75465712 12.47206483 -3.23120078 10.22229832 -2.70703125 7.97265625 C-2.54975052 7.28430191 -2.39246979 6.59594757 -2.23042297 5.88673401 C-1.11351403 1.11351403 -1.11351403 1.11351403 0 0 Z " fill="#447EC7" transform="translate(302,24)"/>
<path d="M0 0 C1.17175781 0.01353516 1.17175781 0.01353516 2.3671875 0.02734375 C2.94726562 0.03894531 3.52734375 0.05054688 4.125 0.0625 C0.50176383 5.17015921 -2.39118908 7.13013572 -8.5625 8.51171875 C-9.30145508 8.69587845 -10.04041016 8.88003815 -10.80175781 9.06977844 C-13.15494483 9.65093823 -15.5141768 10.20078575 -17.875 10.75 C-19.42888261 11.12882575 -20.98227479 11.50966913 -22.53515625 11.89257812 C-26.2881095 12.81282681 -30.0483552 13.69784454 -33.81192017 14.57351685 C-35.72462835 15.0268595 -37.63063482 15.50822869 -39.53588867 15.99194336 C-46.21847296 17.65951771 -52.30658797 18.46694064 -59.1875 18.25 C-60.03505859 18.23646484 -60.88261719 18.22292969 -61.75585938 18.20898438 C-63.79586428 18.17440802 -65.83553086 18.12064748 -67.875 18.0625 C-67.875 17.0725 -67.875 16.0825 -67.875 15.0625 C-66.16570312 14.84207031 -66.16570312 14.84207031 -64.421875 14.6171875 C-52.99768996 13.03798705 -42.3349921 10.32116559 -31.35791016 6.83544922 C-27.26102221 5.56005618 -23.1337144 4.399368 -19 3.25 C-18.269021 3.0432666 -17.53804199 2.8365332 -16.78491211 2.62353516 C-11.16750202 1.06281531 -5.84177053 -0.08851167 0 0 Z " fill="#735030" transform="translate(90.875,338.9375)"/>
<path d="M0 0 C0.52785714 3.16714282 0.74456182 4.92806613 0 8 C-2.07944539 10.85241095 -4.35518459 13.29246442 -6.8359375 15.80078125 C-9.13623504 18.00045927 -9.13623504 18.00045927 -11 21 C-11.66 21 -12.32 21 -13 21 C-14.01006939 17.61952582 -14.19764268 14.45852944 -14.25 10.9375 C-14.27578125 9.89464844 -14.3015625 8.85179687 -14.328125 7.77734375 C-14 5 -14 5 -12.76953125 3.203125 C-10.65893345 1.76810486 -8.93898822 1.29466494 -6.4375 0.8125 C-5.65246094 0.65394531 -4.86742187 0.49539063 -4.05859375 0.33203125 C-2 0 -2 0 0 0 Z " fill="#5A7A3F" transform="translate(392,272)"/>
<path d="M0 0 C5.39294344 1.1157814 10.65127745 2.45168563 15.9375 4 C26.36522302 7.00006149 36.15069834 8.40594602 47 9 C46.67 9.99 46.34 10.98 46 12 C28.57569469 12.58058687 13.94415563 12.99260338 0 1 C0 0.67 0 0.34 0 0 Z " fill="#704F2F" transform="translate(431,348)"/>
<path d="M0 0 C4.29 0.99 8.58 1.98 13 3 C13 8.28 13 13.56 13 19 C8.98157747 17.66052582 7.30039894 14.99385111 4.8125 11.75 C4.34908203 11.17636719 3.88566406 10.60273438 3.40820312 10.01171875 C0.45844243 6.19744793 0 5.05090864 0 0 Z " fill="#56773A" transform="translate(105,271)"/>
<path d="M0 0 C4.41006862 0.4305067 6.83000573 3.4217054 9.75 6.4375 C10.25660156 6.94087891 10.76320312 7.44425781 11.28515625 7.96289062 C15 11.73280618 15 11.73280618 15 14 C10.58993138 13.5694933 8.16999427 10.5782946 5.25 7.5625 C4.74339844 7.05912109 4.23679688 6.55574219 3.71484375 6.03710938 C0 2.26719382 0 2.26719382 0 0 Z " fill="#E1DEDE" transform="translate(195,209)"/>
<path d="M0 0 C4.41006862 0.4305067 6.83000573 3.4217054 9.75 6.4375 C10.25660156 6.94087891 10.76320313 7.44425781 11.28515625 7.96289062 C15 11.73280618 15 11.73280618 15 14 C10.58993138 13.5694933 8.16999427 10.5782946 5.25 7.5625 C4.74339844 7.05912109 4.23679687 6.55574219 3.71484375 6.03710938 C0 2.26719382 0 2.26719382 0 0 Z " fill="#E2E0DF" transform="translate(271,206)"/>
<path d="M0 0 C3.85593074 1.58561638 6.33216291 4.06509954 9.25 7 C10.14203125 7.886875 11.0340625 8.77375 11.953125 9.6875 C14 12 14 12 14 14 C10.14406926 12.41438362 7.66783709 9.93490046 4.75 7 C3.85796875 6.113125 2.9659375 5.22625 2.046875 4.3125 C0 2 0 2 0 0 Z " fill="#F4F4F4" transform="translate(187,209)"/>
<path d="M0 0 C3.85593074 1.58561638 6.33216291 4.06509954 9.25 7 C10.14203125 7.886875 11.0340625 8.77375 11.953125 9.6875 C14 12 14 12 14 14 C10.14406926 12.41438362 7.66783709 9.93490046 4.75 7 C3.85796875 6.113125 2.9659375 5.22625 2.046875 4.3125 C0 2 0 2 0 0 Z " fill="#F5F5F5" transform="translate(280,206)"/>
<path d="M0 0 C0.66 0.33 1.32 0.66 2 1 C-3.33333333 6.33333333 -8.66666667 11.66666667 -14 17 C-14 13 -14 13 -12.4609375 11.2890625 C-11.42839844 10.46535156 -11.42839844 10.46535156 -10.375 9.625 C-6.68952218 6.58874336 -3.3336829 3.41702497 0 0 Z " fill="#6394D0" transform="translate(86,80)"/>
<path d="M0 0 C2.31 0.33 4.62 0.66 7 1 C7 1.99 7 2.98 7 4 C4.36 3.34 1.72 2.68 -1 2 C-0.67 1.34 -0.34 0.68 0 0 Z " fill="#768E5B" transform="translate(394,226)"/>
<path d="M0 0 C0 1.65 0 3.3 0 5 C-1.32 5.33 -2.64 5.66 -4 6 C-4 3 -4 3 -2.5625 1.3125 C-1 0 -1 0 0 0 Z " fill="#D79005" transform="translate(242,221)"/>
<path d="M0 0 C1.65 1.65 3.3 3.3 5 5 C3.0625 5.5625 3.0625 5.5625 1 6 C0 5 0 5 -0.0625 2.4375 C-0.041875 1.633125 -0.02125 0.82875 0 0 Z " fill="#C98904" transform="translate(260,221)"/>
<path d="M0 0 C0.66 0.33 1.32 0.66 2 1 C1.01 1 0.02 1 -1 1 C-0.67 0.67 -0.34 0.34 0 0 Z " fill="#866E5C" transform="translate(31,329)"/>
<path d="M0 0 C0.99 0.495 0.99 0.495 2 1 C1.01 1.495 1.01 1.495 0 2 C0 1.34 0 0.68 0 0 Z " fill="#735741" transform="translate(28,331)"/>
</svg>
